<?xml version="1.0" encoding="UTF-8" standalone="no"?>
<!-- Created with Inkscape (http://www.inkscape.org/) -->

<svg
   xmlns:dc="http://purl.org/dc/elements/1.1/"
   xmlns:cc="http://creativecommons.org/ns#"
   xmlns:rdf="http://www.w3.org/1999/02/22-rdf-syntax-ns#"
   xmlns:svg="http://www.w3.org/2000/svg"
   xmlns="http://www.w3.org/2000/svg"
   xmlns:sodipodi="http://sodipodi.sourceforge.net/DTD/sodipodi-0.dtd"
   xmlns:inkscape="http://www.inkscape.org/namespaces/inkscape"
   width="150"
   height="150"
   viewBox="0 0 39.687499 39.687499"
   version="1.1"
   id="svg8"
   inkscape:version="0.92.4 (5da689c313, 2019-01-14)"
   sodipodi:docname="MHST2-Nerscylla Egg.svg">
  <defs
     id="defs2" />
  <sodipodi:namedview
     id="base"
     pagecolor="#ffffff"
     bordercolor="#666666"
     borderopacity="1.0"
     inkscape:pageopacity="0.0"
     inkscape:pageshadow="2"
     inkscape:zoom="1.979899"
     inkscape:cx="19.830119"
     inkscape:cy="99.313403"
     inkscape:document-units="px"
     inkscape:current-layer="layer1"
     showgrid="false"
     units="px"
     inkscape:window-width="1304"
     inkscape:window-height="745"
     inkscape:window-x="-8"
     inkscape:window-y="-8"
     inkscape:window-maximized="1"
     showguides="true"
     inkscape:guide-bbox="true"
     inkscape:snap-smooth-nodes="false"
     inkscape:snap-global="true">
    <inkscape:grid
       type="xygrid"
       id="grid878" />
  </sodipodi:namedview>
  <metadata
     id="metadata5">
    <rdf:RDF>
      <cc:Work
         rdf:about="">
        <dc:format>image/svg+xml</dc:format>
        <dc:type
           rdf:resource="http://purl.org/dc/dcmitype/StillImage" />
        <dc:title></dc:title>
      </cc:Work>
    </rdf:RDF>
  </metadata>
  <g
     inkscape:label="Layer 1"
     inkscape:groupmode="layer"
     id="layer1"
     transform="translate(0,-257.31251)">
    <path
       inkscape:connector-curvature="0"
       style="fill:#8c00ff;fill-opacity:1;stroke:none;stroke-width:1.05833328;stroke-linecap:butt;stroke-linejoin:miter;stroke-miterlimit:4;stroke-dasharray:none;stroke-opacity:1"
       d="m 19.84375,259.34934 c -5.953125,0 -14.0797614,5.97667 -14.0797614,18.92236 0,10.44157 7.3398604,16.69148 14.0797614,16.69148 6.739901,0 14.079758,-6.24991 14.079758,-16.69148 0,-12.94569 -8.126633,-18.92236 -14.079758,-18.92236 z"
       id="path4584-5-7" />
    <path
       style="fill:#e14747;stroke:none;stroke-width:1px;stroke-linecap:butt;stroke-linejoin:miter;stroke-opacity:1;fill-opacity:1"
       d="M 69.017578 7.0527344 C 69.017578 7.0527344 53.539062 26.507972 53.539062 71.964844 C 53.539062 117.42171 65.357422 141.875 65.357422 141.875 L 72.589844 143.125 C 72.589844 143.125 63.638672 117.1694 63.638672 75.248047 C 63.638672 33.326735 72.947266 7.5898437 72.947266 7.5898438 L 69.017578 7.0527344 z M 83.232422 7.0527344 L 79.302734 7.5898438 C 79.302734 7.5898438 88.611328 33.326736 88.611328 75.248047 C 88.611328 117.1694 79.660156 143.125 79.660156 143.125 L 86.892578 141.875 C 86.892578 141.875 98.710938 117.42171 98.710938 71.964844 C 98.710937 26.507973 83.232422 7.0527344 83.232422 7.0527344 z M 48.927734 17.142578 C 35.731924 24.696607 18.434584 51.257734 22.222656 88.380859 C 26.010728 125.50395 54.107422 136.42773 54.107422 136.42773 C 43.928852 126.07058 33.035714 109.46345 30 77.677734 C 26.964286 45.89202 48.927734 17.142578 48.927734 17.142578 z M 103.32227 17.142578 C 103.32227 17.142578 123.89704 48.544364 120.86133 80.330078 C 117.82561 112.11583 108.32115 126.07062 98.142578 136.42773 C 98.142578 136.42773 124.45412 125.14653 128.24219 88.023438 C 132.03026 50.900312 116.51807 24.696607 103.32227 17.142578 z "
       transform="matrix(0.26458333,0,0,0.26458333,0,257.31251)"
       id="path1553" />
    <path
       style="opacity:0.23800001;fill:#ffffff;fill-opacity:1;stroke:none;stroke-width:0.26458332px;stroke-linecap:butt;stroke-linejoin:miter;stroke-opacity:1"
       d="m 19.84375,259.34933 c -8.8857,0 -14.0797608,9.48073 -14.0797608,18.92236 0,0 1.7175332,-16.91778 14.0797608,-16.91778 12.362227,0 14.07976,16.91778 14.07976,16.91778 0,-9.44163 -5.19406,-18.92236 -14.07976,-18.92236 z"
       id="path4669-4"
       inkscape:connector-curvature="0"
       sodipodi:nodetypes="scscs" />
    <path
       style="opacity:0.54100001;fill:#000000;stroke:none;stroke-width:0.26458332px;stroke-linecap:butt;stroke-linejoin:miter;stroke-opacity:1"
       d="m 5.7639892,278.27169 c 0.2495754,12.68227 10.9383318,16.69149 14.0797608,16.69149 3.141429,0 13.830186,-4.00922 14.07976,-16.69149 -1.821762,10.2695 -10.606269,13.43381 -14.07976,13.43381 -3.473491,0 -12.2579969,-3.16431 -14.0797608,-13.43381 z"
       id="path4617-4"
       inkscape:connector-curvature="0" />
    <path
       style="fill:none;stroke:#000000;stroke-width:1.05833328;stroke-linecap:butt;stroke-linejoin:miter;stroke-miterlimit:4;stroke-dasharray:none;stroke-opacity:1"
       d="m 19.84375,259.34933 c -5.953125,0 -14.0797608,5.97667 -14.0797608,18.92236 0,10.44158 7.3398598,16.69149 14.0797608,16.69149 6.739901,0 14.07976,-6.24991 14.07976,-16.69149 0,-12.94569 -8.126635,-18.92236 -14.07976,-18.92236 z"
       id="path4584-7"
       inkscape:connector-curvature="0" />
  </g>
</svg>
