<?xml version="1.0" encoding="UTF-8" standalone="no"?>
<!-- Created with Inkscape (http://www.inkscape.org/) -->

<svg
   xmlns:dc="http://purl.org/dc/elements/1.1/"
   xmlns:cc="http://creativecommons.org/ns#"
   xmlns:rdf="http://www.w3.org/1999/02/22-rdf-syntax-ns#"
   xmlns:svg="http://www.w3.org/2000/svg"
   xmlns="http://www.w3.org/2000/svg"
   xmlns:sodipodi="http://sodipodi.sourceforge.net/DTD/sodipodi-0.dtd"
   xmlns:inkscape="http://www.inkscape.org/namespaces/inkscape"
   width="150"
   height="150"
   viewBox="0 0 39.687499 39.687499"
   version="1.1"
   id="svg8"
   inkscape:version="0.92.4 (5da689c313, 2019-01-14)"
   sodipodi:docname="MHST2-Cephadrome Egg.svg">
  <defs
     id="defs2" />
  <sodipodi:namedview
     id="base"
     pagecolor="#ffffff"
     bordercolor="#666666"
     borderopacity="1.0"
     inkscape:pageopacity="0.0"
     inkscape:pageshadow="2"
     inkscape:zoom="2.8"
     inkscape:cx="130.92225"
     inkscape:cy="45.64732"
     inkscape:document-units="px"
     inkscape:current-layer="layer1"
     showgrid="false"
     units="px"
     inkscape:window-width="1304"
     inkscape:window-height="745"
     inkscape:window-x="-8"
     inkscape:window-y="-8"
     inkscape:window-maximized="1"
     showguides="true"
     inkscape:guide-bbox="true"
     inkscape:snap-smooth-nodes="false"
     inkscape:snap-global="true">
    <inkscape:grid
       type="xygrid"
       id="grid878" />
  </sodipodi:namedview>
  <metadata
     id="metadata5">
    <rdf:RDF>
      <cc:Work
         rdf:about="">
        <dc:format>image/svg+xml</dc:format>
        <dc:type
           rdf:resource="http://purl.org/dc/dcmitype/StillImage" />
        <dc:title></dc:title>
      </cc:Work>
    </rdf:RDF>
  </metadata>
  <g
     inkscape:label="Layer 1"
     inkscape:groupmode="layer"
     id="layer1"
     transform="translate(0,-257.31251)">
    <path
       inkscape:connector-curvature="0"
       style="fill:#585c32;fill-opacity:1;stroke:none;stroke-width:1.05833328;stroke-linecap:butt;stroke-linejoin:miter;stroke-miterlimit:4;stroke-dasharray:none;stroke-opacity:1"
       d="m 19.84375,259.34934 c -5.953125,0 -14.0797615,5.97667 -14.0797615,18.92236 0,10.44157 7.3398605,16.69148 14.0797615,16.69148 6.739901,0 14.079758,-6.24991 14.079758,-16.69148 0,-12.94569 -8.126633,-18.92236 -14.079758,-18.92236 z"
       id="path4584-5-7" />
    <path
       style="fill:#ff4d0d;stroke:none;stroke-width:4;stroke-linecap:butt;stroke-linejoin:miter;stroke-miterlimit:4;stroke-dasharray:none;stroke-opacity:1;fill-opacity:1"
       d="M 67.873047 8.4726562 C 64.247069 9.1830015 60.536476 10.385196 56.851562 12.177734 A 8.4600282 6.8816648 0 0 0 56.765625 12.333984 A 8.4600282 6.8816648 0 0 0 56.498047 12.988281 A 8.4600282 6.8816648 0 0 0 56.3125 13.658203 A 8.4600282 6.8816648 0 0 0 56.210938 14.341797 A 8.4600282 6.8816648 0 0 0 56.189453 14.828125 A 8.4600282 6.8816648 0 0 0 56.232422 15.515625 A 8.4600282 6.8816648 0 0 0 56.357422 16.195312 A 8.4600282 6.8816648 0 0 0 56.566406 16.861328 A 8.4600282 6.8816648 0 0 0 56.857422 17.507812 A 8.4600282 6.8816648 0 0 0 57.224609 18.126953 A 8.4600282 6.8816648 0 0 0 57.666016 18.714844 A 8.4600282 6.8816648 0 0 0 58.177734 19.261719 A 8.4600282 6.8816648 0 0 0 58.753906 19.765625 A 8.4600282 6.8816648 0 0 0 59.388672 20.21875 A 8.4600282 6.8816648 0 0 0 60.078125 20.619141 A 8.4600282 6.8816648 0 0 0 60.810547 20.960938 A 8.4600282 6.8816648 0 0 0 61.582031 21.242188 A 8.4600282 6.8816648 0 0 0 62.384766 21.458984 A 8.4600282 6.8816648 0 0 0 63.210938 21.611328 A 8.4600282 6.8816648 0 0 0 64.048828 21.693359 A 8.4600282 6.8816648 0 0 0 64.650391 21.710938 A 8.4600282 6.8816648 0 0 0 65.494141 21.675781 A 8.4600282 6.8816648 0 0 0 66.332031 21.574219 A 8.4600282 6.8816648 0 0 0 67.150391 21.404297 A 8.4600282 6.8816648 0 0 0 67.945312 21.167969 A 8.4600282 6.8816648 0 0 0 68.707031 20.867188 A 8.4600282 6.8816648 0 0 0 69.427734 20.507812 A 8.4600282 6.8816648 0 0 0 70.099609 20.091797 A 8.4600282 6.8816648 0 0 0 70.71875 19.623047 A 8.4600282 6.8816648 0 0 0 71.277344 19.105469 A 8.4600282 6.8816648 0 0 0 71.769531 18.546875 A 8.4600282 6.8816648 0 0 0 72.189453 17.949219 A 8.4600282 6.8816648 0 0 0 72.535156 17.322266 A 8.4600282 6.8816648 0 0 0 72.800781 16.669922 A 8.4600282 6.8816648 0 0 0 72.986328 15.998047 A 8.4600282 6.8816648 0 0 0 73.087891 15.314453 A 8.4600282 6.8816648 0 0 0 73.109375 14.828125 A 8.4600282 6.8816648 0 0 0 73.066406 14.140625 A 8.4600282 6.8816648 0 0 0 72.941406 13.460938 A 8.4600282 6.8816648 0 0 0 72.730469 12.794922 A 8.4600282 6.8816648 0 0 0 72.441406 12.148438 A 8.4600282 6.8816648 0 0 0 72.074219 11.529297 A 8.4600282 6.8816648 0 0 0 71.630859 10.943359 A 8.4600282 6.8816648 0 0 0 71.119141 10.394531 A 8.4600282 6.8816648 0 0 0 70.542969 9.8925781 A 8.4600282 6.8816648 0 0 0 69.908203 9.4375 A 8.4600282 6.8816648 0 0 0 69.21875 9.0371094 A 8.4600282 6.8816648 0 0 0 68.486328 8.6953125 A 8.4600282 6.8816648 0 0 0 67.873047 8.4726562 z M 91.570312 11.478516 A 8.4600282 6.8816648 0 0 0 91.566406 11.5 A 8.4600282 6.8816648 0 0 0 91.544922 11.988281 A 8.4600282 6.8816648 0 0 0 91.587891 12.675781 A 8.4600282 6.8816648 0 0 0 91.712891 13.355469 A 8.4600282 6.8816648 0 0 0 91.923828 14.021484 A 8.4600282 6.8816648 0 0 0 92.212891 14.667969 A 8.4600282 6.8816648 0 0 0 92.580078 15.287109 A 8.4600282 6.8816648 0 0 0 93.023438 15.873047 A 8.4600282 6.8816648 0 0 0 93.535156 16.421875 A 8.4600282 6.8816648 0 0 0 94.111328 16.923828 A 8.4600282 6.8816648 0 0 0 94.746094 17.378906 A 8.4600282 6.8816648 0 0 0 95.435547 17.779297 A 8.4600282 6.8816648 0 0 0 96.167969 18.121094 A 8.4600282 6.8816648 0 0 0 96.939453 18.402344 A 8.4600282 6.8816648 0 0 0 97.742188 18.619141 A 8.4600282 6.8816648 0 0 0 98.568359 18.769531 A 8.4600282 6.8816648 0 0 0 99.408203 18.851562 A 8.4600282 6.8816648 0 0 0 100.00586 18.869141 A 8.4600282 6.8816648 0 0 0 100.84961 18.833984 A 8.4600282 6.8816648 0 0 0 101.6875 18.732422 A 8.4600282 6.8816648 0 0 0 102.50586 18.5625 A 8.4600282 6.8816648 0 0 0 102.93359 18.435547 C 99.267711 15.508768 95.438547 13.192498 91.570312 11.478516 z M 47.34375 18.203125 C 40.429739 23.650581 34.131315 31.229663 29.523438 41.123047 A 15.783634 15.783634 0 0 0 30.285156 42.365234 A 15.783634 15.783634 0 0 0 31.240234 43.621094 A 15.783634 15.783634 0 0 0 32.314453 44.775391 A 15.783634 15.783634 0 0 0 33.5 45.816406 A 15.783634 15.783634 0 0 0 34.783203 46.734375 A 15.783634 15.783634 0 0 0 36.152344 47.519531 A 15.783634 15.783634 0 0 0 37.591797 48.164062 A 15.783634 15.783634 0 0 0 39.089844 48.662109 A 15.783634 15.783634 0 0 0 40.628906 49.005859 A 15.783634 15.783634 0 0 0 42.195312 49.197266 A 15.783634 15.783634 0 0 0 43.310547 49.236328 A 15.783634 15.783634 0 0 0 44.886719 49.158203 A 15.783634 15.783634 0 0 0 46.445312 48.921875 A 15.783634 15.783634 0 0 0 47.974609 48.53125 A 15.783634 15.783634 0 0 0 49.457031 47.990234 A 15.783634 15.783634 0 0 0 50.876953 47.304688 A 15.783634 15.783634 0 0 0 52.222656 46.478516 A 15.783634 15.783634 0 0 0 53.478516 45.523438 A 15.783634 15.783634 0 0 0 54.632812 44.449219 A 15.783634 15.783634 0 0 0 55.673828 43.263672 A 15.783634 15.783634 0 0 0 56.591797 41.980469 A 15.783634 15.783634 0 0 0 57.376953 40.611328 A 15.783634 15.783634 0 0 0 58.021484 39.171875 A 15.783634 15.783634 0 0 0 58.519531 37.673828 A 15.783634 15.783634 0 0 0 58.863281 36.134766 A 15.783634 15.783634 0 0 0 59.054688 34.568359 A 15.783634 15.783634 0 0 0 59.09375 33.453125 A 15.783634 15.783634 0 0 0 59.015625 31.876953 A 15.783634 15.783634 0 0 0 58.779297 30.318359 A 15.783634 15.783634 0 0 0 58.388672 28.789062 A 15.783634 15.783634 0 0 0 57.847656 27.306641 A 15.783634 15.783634 0 0 0 57.162109 25.886719 A 15.783634 15.783634 0 0 0 56.335938 24.541016 A 15.783634 15.783634 0 0 0 55.380859 23.285156 A 15.783634 15.783634 0 0 0 54.306641 22.130859 A 15.783634 15.783634 0 0 0 53.121094 21.089844 A 15.783634 15.783634 0 0 0 51.837891 20.171875 A 15.783634 15.783634 0 0 0 50.46875 19.386719 A 15.783634 15.783634 0 0 0 49.029297 18.742188 A 15.783634 15.783634 0 0 0 47.53125 18.244141 A 15.783634 15.783634 0 0 0 47.34375 18.203125 z M 89.146484 22.847656 A 12.626907 12.626907 0 0 0 87.886719 22.910156 A 12.626907 12.626907 0 0 0 86.638672 23.099609 A 12.626907 12.626907 0 0 0 85.414062 23.412109 A 12.626907 12.626907 0 0 0 84.228516 23.84375 A 12.626907 12.626907 0 0 0 83.09375 24.392578 A 12.626907 12.626907 0 0 0 82.017578 25.052734 A 12.626907 12.626907 0 0 0 81.011719 25.816406 A 12.626907 12.626907 0 0 0 80.087891 26.677734 A 12.626907 12.626907 0 0 0 79.255859 27.625 A 12.626907 12.626907 0 0 0 78.521484 28.652344 A 12.626907 12.626907 0 0 0 77.892578 29.746094 A 12.626907 12.626907 0 0 0 77.376953 30.898438 A 12.626907 12.626907 0 0 0 76.980469 32.097656 A 12.626907 12.626907 0 0 0 76.703125 33.328125 A 12.626907 12.626907 0 0 0 76.550781 34.582031 A 12.626907 12.626907 0 0 0 76.519531 35.474609 A 12.626907 12.626907 0 0 0 76.582031 36.734375 A 12.626907 12.626907 0 0 0 76.771484 37.982422 A 12.626907 12.626907 0 0 1 76.771484 37.984375 A 12.626907 12.626907 0 0 0 77.083984 39.207031 A 12.626907 12.626907 0 0 0 77.515625 40.392578 A 12.626907 12.626907 0 0 0 78.064453 41.527344 A 12.626907 12.626907 0 0 0 78.724609 42.603516 A 12.626907 12.626907 0 0 0 79.488281 43.609375 A 12.626907 12.626907 0 0 0 80.349609 44.533203 A 12.626907 12.626907 0 0 0 81.296875 45.365234 A 12.626907 12.626907 0 0 0 82.324219 46.099609 A 12.626907 12.626907 0 0 0 83.417969 46.728516 A 12.626907 12.626907 0 0 0 84.570312 47.244141 A 12.626907 12.626907 0 0 0 85.769531 47.640625 A 12.626907 12.626907 0 0 0 87 47.917969 A 12.626907 12.626907 0 0 0 88.253906 48.070312 A 12.626907 12.626907 0 0 0 89.146484 48.101562 A 12.626907 12.626907 0 0 0 90.40625 48.039062 A 12.626907 12.626907 0 0 0 91.654297 47.849609 A 12.626907 12.626907 0 0 0 91.65625 47.849609 A 12.626907 12.626907 0 0 0 92.878906 47.537109 A 12.626907 12.626907 0 0 0 94.064453 47.105469 A 12.626907 12.626907 0 0 0 95.199219 46.556641 A 12.626907 12.626907 0 0 0 96.275391 45.896484 A 12.626907 12.626907 0 0 0 97.28125 45.132812 A 12.626907 12.626907 0 0 0 98.205078 44.271484 A 12.626907 12.626907 0 0 0 99.037109 43.324219 A 12.626907 12.626907 0 0 0 99.771484 42.296875 A 12.626907 12.626907 0 0 0 100.40039 41.203125 A 12.626907 12.626907 0 0 0 100.91602 40.050781 A 12.626907 12.626907 0 0 0 101.3125 38.851562 A 12.626907 12.626907 0 0 0 101.58984 37.621094 A 12.626907 12.626907 0 0 0 101.74219 36.367188 A 12.626907 12.626907 0 0 0 101.77344 35.474609 A 12.626907 12.626907 0 0 0 101.71094 34.214844 A 12.626907 12.626907 0 0 0 101.52148 32.966797 A 12.626907 12.626907 0 0 0 101.52148 32.964844 A 12.626907 12.626907 0 0 0 101.20898 31.744141 A 12.626907 12.626907 0 0 0 101.20898 31.742188 A 12.626907 12.626907 0 0 0 100.77734 30.556641 A 12.626907 12.626907 0 0 0 100.22852 29.421875 A 12.626907 12.626907 0 0 0 99.568359 28.345703 A 12.626907 12.626907 0 0 0 98.804688 27.339844 A 12.626907 12.626907 0 0 0 97.943359 26.416016 A 12.626907 12.626907 0 0 0 96.996094 25.583984 A 12.626907 12.626907 0 0 0 95.96875 24.849609 A 12.626907 12.626907 0 0 0 94.875 24.220703 A 12.626907 12.626907 0 0 0 93.722656 23.705078 A 12.626907 12.626907 0 0 0 92.523438 23.308594 A 12.626907 12.626907 0 0 0 91.292969 23.03125 A 12.626907 12.626907 0 0 0 90.039062 22.878906 A 12.626907 12.626907 0 0 0 89.146484 22.847656 z M 115.03125 34.462891 A 7.0710686 7.0710686 0 0 0 114.32617 34.498047 A 7.0710686 7.0710686 0 0 0 113.62695 34.603516 A 7.0710686 7.0710686 0 0 0 112.94141 34.779297 A 7.0710686 7.0710686 0 0 0 112.27734 35.021484 A 7.0710686 7.0710686 0 0 0 111.64062 35.328125 A 7.0710686 7.0710686 0 0 0 111.03906 35.699219 A 7.0710686 7.0710686 0 0 0 110.47656 36.126953 A 7.0710686 7.0710686 0 0 0 109.95898 36.607422 A 7.0710686 7.0710686 0 0 0 109.49219 37.138672 A 7.0710686 7.0710686 0 0 0 109.08203 37.714844 A 7.0710686 7.0710686 0 0 0 108.73047 38.328125 A 7.0710686 7.0710686 0 0 0 108.44141 38.972656 A 7.0710686 7.0710686 0 0 0 108.21875 39.642578 A 7.0710686 7.0710686 0 0 0 108.06445 40.332031 A 7.0710686 7.0710686 0 0 0 107.97852 41.035156 A 7.0710686 7.0710686 0 0 0 107.96094 41.535156 A 7.0710686 7.0710686 0 0 0 107.99609 42.240234 A 7.0710686 7.0710686 0 0 0 108.10156 42.939453 A 7.0710686 7.0710686 0 0 0 108.27734 43.625 A 7.0710686 7.0710686 0 0 0 108.51953 44.289062 A 7.0710686 7.0710686 0 0 0 108.82617 44.925781 A 7.0710686 7.0710686 0 0 0 109.19727 45.527344 A 7.0710686 7.0710686 0 0 0 109.625 46.089844 A 7.0710686 7.0710686 0 0 0 110.10547 46.607422 A 7.0710686 7.0710686 0 0 0 110.63672 47.074219 A 7.0710686 7.0710686 0 0 0 111.21289 47.484375 A 7.0710686 7.0710686 0 0 0 111.82617 47.835938 A 7.0710686 7.0710686 0 0 0 112.4707 48.125 A 7.0710686 7.0710686 0 0 0 113.14062 48.347656 A 7.0710686 7.0710686 0 0 0 113.83008 48.501953 A 7.0710686 7.0710686 0 0 0 114.5332 48.587891 A 7.0710686 7.0710686 0 0 0 115.03125 48.605469 A 7.0710686 7.0710686 0 0 0 115.73633 48.570312 A 7.0710686 7.0710686 0 0 0 116.43555 48.464844 A 7.0710686 7.0710686 0 0 0 117.12109 48.289062 A 7.0710686 7.0710686 0 0 0 117.78516 48.046875 A 7.0710686 7.0710686 0 0 0 118.42188 47.740234 A 7.0710686 7.0710686 0 0 0 119.02344 47.369141 A 7.0710686 7.0710686 0 0 0 119.58594 46.941406 A 7.0710686 7.0710686 0 0 0 120.10352 46.460938 A 7.0710686 7.0710686 0 0 0 120.57031 45.929688 A 7.0710686 7.0710686 0 0 0 120.98047 45.353516 A 7.0710686 7.0710686 0 0 0 121.33203 44.740234 A 7.0710686 7.0710686 0 0 0 121.62109 44.095703 A 7.0710686 7.0710686 0 0 0 121.6582 43.986328 C 120.29516 40.708199 118.79986 37.603295 117.11133 34.783203 A 7.0710686 7.0710686 0 0 0 116.92383 34.720703 A 7.0710686 7.0710686 0 0 0 116.23438 34.566406 A 7.0710686 7.0710686 0 0 0 115.53125 34.480469 A 7.0710686 7.0710686 0 0 0 115.03125 34.462891 z M 26.753906 47.990234 C 24.015812 55.805349 22.3291 64.85375 21.949219 75.068359 A 13.763328 13.763328 0 0 0 23.142578 75.212891 A 13.763328 13.763328 0 0 0 24.117188 75.248047 A 13.763328 13.763328 0 0 0 25.492188 75.179688 A 13.763328 13.763328 0 0 0 26.851562 74.974609 A 13.763328 13.763328 0 0 0 28.183594 74.632812 A 13.763328 13.763328 0 0 0 29.476562 74.162109 A 13.763328 13.763328 0 0 0 30.714844 73.5625 A 13.763328 13.763328 0 0 0 31.888672 72.84375 A 13.763328 13.763328 0 0 0 32.984375 72.011719 A 13.763328 13.763328 0 0 0 33.990234 71.074219 A 13.763328 13.763328 0 0 0 34.898438 70.041016 A 13.763328 13.763328 0 0 0 35.699219 68.921875 A 13.763328 13.763328 0 0 0 36.382812 67.728516 A 13.763328 13.763328 0 0 0 36.945312 66.472656 A 13.763328 13.763328 0 0 0 37.378906 65.166016 A 13.763328 13.763328 0 0 0 37.679688 63.824219 A 13.763328 13.763328 0 0 0 37.845703 62.458984 A 13.763328 13.763328 0 0 0 37.880859 61.484375 A 13.763328 13.763328 0 0 0 37.8125 60.109375 A 13.763328 13.763328 0 0 0 37.605469 58.75 A 13.763328 13.763328 0 0 0 37.265625 57.417969 A 13.763328 13.763328 0 0 0 36.792969 56.125 A 13.763328 13.763328 0 0 0 36.195312 54.886719 A 13.763328 13.763328 0 0 0 35.476562 53.712891 A 13.763328 13.763328 0 0 0 34.642578 52.619141 A 13.763328 13.763328 0 0 0 33.705078 51.611328 A 13.763328 13.763328 0 0 0 32.671875 50.703125 A 13.763328 13.763328 0 0 0 31.552734 49.904297 A 13.763328 13.763328 0 0 0 30.359375 49.21875 A 13.763328 13.763328 0 0 0 29.103516 48.658203 A 13.763328 13.763328 0 0 0 27.796875 48.224609 A 13.763328 13.763328 0 0 0 26.753906 47.990234 z M 73.740234 49.490234 A 27.652926 27.652926 0 0 0 70.980469 49.628906 A 27.652926 27.652926 0 0 0 68.246094 50.041016 A 27.652926 27.652926 0 0 0 65.568359 50.724609 A 27.652926 27.652926 0 0 0 62.972656 51.673828 A 27.652926 27.652926 0 0 0 60.482422 52.875 A 27.652926 27.652926 0 0 0 58.126953 54.320312 A 27.652926 27.652926 0 0 0 55.925781 55.994141 A 27.652926 27.652926 0 0 0 53.904297 57.876953 A 27.652926 27.652926 0 0 0 52.080078 59.955078 A 27.652926 27.652926 0 0 0 50.470703 62.203125 A 27.652926 27.652926 0 0 0 49.095703 64.599609 A 27.652926 27.652926 0 0 0 47.966797 67.123047 A 27.652926 27.652926 0 0 0 47.095703 69.746094 A 27.652926 27.652926 0 0 0 46.490234 72.443359 A 27.652926 27.652926 0 0 0 46.15625 75.1875 A 27.652926 27.652926 0 0 0 46.087891 77.142578 A 27.652926 27.652926 0 0 0 46.226562 79.902344 A 27.652926 27.652926 0 0 1 46.226562 79.904297 A 27.652926 27.652926 0 0 0 46.638672 82.636719 A 27.652926 27.652926 0 0 0 47.322266 85.314453 A 27.652926 27.652926 0 0 0 48.271484 87.910156 A 27.652926 27.652926 0 0 0 49.472656 90.400391 A 27.652926 27.652926 0 0 0 50.917969 92.755859 A 27.652926 27.652926 0 0 0 52.591797 94.957031 A 27.652926 27.652926 0 0 0 54.474609 96.978516 A 27.652926 27.652926 0 0 0 56.552734 98.802734 A 27.652926 27.652926 0 0 0 58.800781 100.41211 A 27.652926 27.652926 0 0 0 61.197266 101.78711 A 27.652926 27.652926 0 0 0 63.720703 102.91602 A 27.652926 27.652926 0 0 0 66.34375 103.78711 A 27.652926 27.652926 0 0 0 69.041016 104.39258 A 27.652926 27.652926 0 0 0 71.785156 104.72656 A 27.652926 27.652926 0 0 0 73.740234 104.79492 A 27.652926 27.652926 0 0 0 76.5 104.65625 A 27.652926 27.652926 0 0 0 76.501953 104.65625 A 27.652926 27.652926 0 0 0 79.234375 104.24414 A 27.652926 27.652926 0 0 0 81.912109 103.56055 A 27.652926 27.652926 0 0 0 84.509766 102.61328 A 27.652926 27.652926 0 0 0 86.998047 101.41016 A 27.652926 27.652926 0 0 0 89.353516 99.964844 A 27.652926 27.652926 0 0 0 91.554688 98.292969 A 27.652926 27.652926 0 0 0 93.578125 96.408203 A 27.652926 27.652926 0 0 0 95.402344 94.332031 A 27.652926 27.652926 0 0 0 97.009766 92.083984 A 27.652926 27.652926 0 0 0 98.384766 89.685547 A 27.652926 27.652926 0 0 0 99.515625 87.164062 A 27.652926 27.652926 0 0 0 100.38672 84.541016 A 27.652926 27.652926 0 0 0 100.99219 81.84375 A 27.652926 27.652926 0 0 0 101.32422 79.099609 A 27.652926 27.652926 0 0 0 101.39453 77.142578 A 27.652926 27.652926 0 0 0 101.25586 74.382812 A 27.652926 27.652926 0 0 0 101.25586 74.380859 A 27.652926 27.652926 0 0 0 100.84375 71.650391 A 27.652926 27.652926 0 0 0 100.84375 71.648438 A 27.652926 27.652926 0 0 0 100.16016 68.970703 A 27.652926 27.652926 0 0 0 99.210938 66.375 A 27.652926 27.652926 0 0 0 98.009766 63.884766 A 27.652926 27.652926 0 0 0 96.564453 61.529297 A 27.652926 27.652926 0 0 0 94.890625 59.328125 A 27.652926 27.652926 0 0 0 93.007812 57.306641 A 27.652926 27.652926 0 0 0 90.929688 55.482422 A 27.652926 27.652926 0 0 0 88.681641 53.873047 A 27.652926 27.652926 0 0 0 86.285156 52.498047 A 27.652926 27.652926 0 0 0 83.761719 51.369141 A 27.652926 27.652926 0 0 0 81.138672 50.498047 A 27.652926 27.652926 0 0 0 78.441406 49.892578 A 27.652926 27.652926 0 0 0 75.697266 49.558594 A 27.652926 27.652926 0 0 0 73.740234 49.490234 z M 122.98633 53.025391 A 17.803938 17.803938 0 0 0 121.20898 53.115234 A 17.803938 17.803938 0 0 0 119.44922 53.380859 A 17.803938 17.803938 0 0 0 117.72461 53.820312 A 17.803938 17.803938 0 0 0 116.05273 54.429688 A 17.803938 17.803938 0 0 0 114.45117 55.205078 A 17.803938 17.803938 0 0 0 112.93359 56.134766 A 17.803938 17.803938 0 0 0 111.51562 57.210938 A 17.803938 17.803938 0 0 0 110.21484 58.423828 A 17.803938 17.803938 0 0 0 109.03906 59.761719 A 17.803938 17.803938 0 0 0 108.00391 61.208984 A 17.803938 17.803938 0 0 0 107.11914 62.751953 A 17.803938 17.803938 0 0 0 106.39258 64.376953 A 17.803938 17.803938 0 0 0 105.83008 66.066406 A 17.803938 17.803938 0 0 0 105.44141 67.802734 A 17.803938 17.803938 0 0 0 105.22656 69.568359 A 17.803938 17.803938 0 0 0 105.18164 70.830078 A 17.803938 17.803938 0 0 0 105.27148 72.607422 A 17.803938 17.803938 0 0 0 105.53711 74.367188 A 17.803938 17.803938 0 0 0 105.97656 76.091797 A 17.803938 17.803938 0 0 0 106.58789 77.763672 A 17.803938 17.803938 0 0 0 107.36133 79.365234 A 17.803938 17.803938 0 0 0 108.29297 80.882812 A 17.803938 17.803938 0 0 0 109.36914 82.298828 A 17.803938 17.803938 0 0 0 110.58203 83.601562 A 17.803938 17.803938 0 0 0 111.91992 84.775391 A 17.803938 17.803938 0 0 0 113.36719 85.810547 A 17.803938 17.803938 0 0 0 114.91016 86.697266 A 17.803938 17.803938 0 0 0 116.53516 87.423828 A 17.803938 17.803938 0 0 0 118.22461 87.984375 A 17.803938 17.803938 0 0 0 119.96094 88.373047 A 17.803938 17.803938 0 0 0 121.72656 88.587891 A 17.803938 17.803938 0 0 0 122.98633 88.632812 A 17.803938 17.803938 0 0 0 124.76367 88.542969 A 17.803938 17.803938 0 0 0 126.52344 88.277344 A 17.803938 17.803938 0 0 0 127.68555 87.980469 C 127.99848 85.143136 128.21484 82.242135 128.21484 79.214844 C 128.21484 69.473664 126.95774 60.823371 124.83008 53.140625 A 17.803938 17.803938 0 0 0 124.24609 53.070312 A 17.803938 17.803938 0 0 0 122.98633 53.025391 z M 35.103516 79.667969 A 8.4600282 8.4600282 0 0 0 34.259766 79.710938 A 8.4600282 8.4600282 0 0 0 33.421875 79.835938 A 8.4600282 8.4600282 0 0 0 32.603516 80.044922 A 8.4600282 8.4600282 0 0 0 31.808594 80.335938 A 8.4600282 8.4600282 0 0 0 31.046875 80.703125 A 8.4600282 8.4600282 0 0 0 30.326172 81.144531 A 8.4600282 8.4600282 0 0 0 29.652344 81.65625 A 8.4600282 8.4600282 0 0 0 29.035156 82.232422 A 8.4600282 8.4600282 0 0 0 28.476562 82.869141 A 8.4600282 8.4600282 0 0 0 27.984375 83.556641 A 8.4600282 8.4600282 0 0 0 27.5625 84.289062 A 8.4600282 8.4600282 0 0 0 27.21875 85.0625 A 8.4600282 8.4600282 0 0 0 26.951172 85.863281 A 8.4600282 8.4600282 0 0 0 26.765625 86.689453 A 8.4600282 8.4600282 0 0 0 26.664062 87.529297 A 8.4600282 8.4600282 0 0 0 26.642578 88.128906 A 8.4600282 8.4600282 0 0 0 26.685547 88.972656 A 8.4600282 8.4600282 0 0 0 26.810547 89.810547 A 8.4600282 8.4600282 0 0 0 27.021484 90.628906 A 8.4600282 8.4600282 0 0 0 27.310547 91.423828 A 8.4600282 8.4600282 0 0 0 27.679688 92.185547 A 8.4600282 8.4600282 0 0 0 28.121094 92.90625 A 8.4600282 8.4600282 0 0 0 28.632812 93.578125 A 8.4600282 8.4600282 0 0 0 29.208984 94.197266 A 8.4600282 8.4600282 0 0 0 29.84375 94.755859 A 8.4600282 8.4600282 0 0 0 30.533203 95.248047 A 8.4600282 8.4600282 0 0 0 31.265625 95.667969 A 8.4600282 8.4600282 0 0 0 32.037109 96.013672 A 8.4600282 8.4600282 0 0 0 32.839844 96.279297 A 8.4600282 8.4600282 0 0 0 33.666016 96.464844 A 8.4600282 8.4600282 0 0 0 34.505859 96.566406 A 8.4600282 8.4600282 0 0 0 35.103516 96.587891 A 8.4600282 8.4600282 0 0 0 35.947266 96.544922 A 8.4600282 8.4600282 0 0 0 36.785156 96.419922 A 8.4600282 8.4600282 0 0 0 37.603516 96.208984 A 8.4600282 8.4600282 0 0 0 38.398438 95.919922 A 8.4600282 8.4600282 0 0 0 39.160156 95.550781 A 8.4600282 8.4600282 0 0 0 39.880859 95.109375 A 8.4600282 8.4600282 0 0 0 40.552734 94.597656 A 8.4600282 8.4600282 0 0 0 41.171875 94.021484 A 8.4600282 8.4600282 0 0 0 41.730469 93.386719 A 8.4600282 8.4600282 0 0 0 42.222656 92.697266 A 8.4600282 8.4600282 0 0 0 42.642578 91.964844 A 8.4600282 8.4600282 0 0 0 42.988281 91.193359 A 8.4600282 8.4600282 0 0 0 43.253906 90.390625 A 8.4600282 8.4600282 0 0 0 43.439453 89.564453 A 8.4600282 8.4600282 0 0 0 43.541016 88.724609 A 8.4600282 8.4600282 0 0 0 43.5625 88.128906 A 8.4600282 8.4600282 0 0 0 43.519531 87.285156 A 8.4600282 8.4600282 0 0 0 43.394531 86.447266 A 8.4600282 8.4600282 0 0 0 43.185547 85.628906 A 8.4600282 8.4600282 0 0 0 42.894531 84.833984 A 8.4600282 8.4600282 0 0 0 42.527344 84.072266 A 8.4600282 8.4600282 0 0 0 42.085938 83.351562 A 8.4600282 8.4600282 0 0 0 41.574219 82.677734 A 8.4600282 8.4600282 0 0 0 40.998047 82.060547 A 8.4600282 8.4600282 0 0 0 40.361328 81.501953 A 8.4600282 8.4600282 0 0 0 39.673828 81.009766 A 8.4600282 8.4600282 0 0 0 38.941406 80.587891 A 8.4600282 8.4600282 0 0 0 38.167969 80.244141 A 8.4600282 8.4600282 0 0 0 37.367188 79.976562 A 8.4600282 8.4600282 0 0 0 36.541016 79.791016 A 8.4600282 8.4600282 0 0 0 35.701172 79.689453 A 8.4600282 8.4600282 0 0 0 35.103516 79.667969 z M 112.37891 96.208984 C 111.21082 96.208984 110.0323 96.36039 108.86328 96.644531 C 107.69427 96.928673 106.53521 97.346193 105.4082 97.875 C 104.2812 98.403807 103.18463 99.045302 102.14258 99.779297 C 101.10053 100.51329 100.11337 101.33858 99.199219 102.23828 C 98.285066 103.13799 97.444487 104.11078 96.701172 105.13672 C 95.957857 106.16266 95.310787 107.24277 94.78125 108.35547 C 94.251713 109.46817 93.839223 110.61346 93.566406 111.77344 C 93.293589 112.93341 93.160656 114.10761 93.1875 115.27539 C 93.219069 116.64866 93.376223 117.94498 93.646484 119.16211 C 93.916746 120.37924 94.299903 121.51766 94.78125 122.57422 C 95.262597 123.63078 95.842989 124.60454 96.507812 125.49609 C 97.172637 126.38765 97.921494 127.19586 98.742188 127.91797 C 99.56288 128.64008 100.45534 129.27794 101.4043 129.82617 C 102.35325 130.37441 103.3586 130.8332 104.4082 131.20312 C 104.54197 131.25028 104.68907 131.26634 104.82422 131.31055 C 113.87791 124.1637 121.34106 113.72027 125.24414 100.41797 C 124.90172 100.09867 124.59841 99.742143 124.2168 99.460938 C 123.46707 98.908476 122.64515 98.427955 121.75977 98.019531 C 120.87438 97.611107 119.92611 97.274194 118.92578 97.005859 C 116.92513 96.46919 114.71508 96.208984 112.37891 96.208984 z M 41.667969 102.14453 C 40.499881 102.14453 39.404905 102.25041 38.382812 102.45508 C 37.360721 102.65974 36.411247 102.9629 35.535156 103.35547 C 34.659065 103.74804 33.857039 104.2312 33.126953 104.79492 C 32.396867 105.35864 31.738374 106.00259 31.154297 106.7207 C 30.57022 107.43881 30.059158 108.2302 29.621094 109.08594 C 29.314181 109.68548 29.090708 110.35552 28.855469 111.01562 C 33.043776 119.50322 38.837562 126.37662 45.447266 131.52734 C 46.830853 131.46806 48.266218 131.46481 49.519531 131.26367 C 50.533614 131.10093 51.497794 130.88301 52.402344 130.59375 C 53.306893 130.30449 54.152453 129.94391 54.925781 129.49805 C 55.69911 129.05218 56.401064 128.51929 57.021484 127.88672 C 57.641905 127.25414 58.181129 126.52125 58.626953 125.67188 C 59.072777 124.82249 59.424288 123.858 59.673828 122.76172 C 59.923368 121.66544 60.069994 120.43773 60.101562 119.06445 C 60.128408 117.89667 60.006002 116.75558 59.753906 115.6543 C 59.501811 114.55301 59.120967 113.4906 58.626953 112.47852 C 58.132939 111.46644 57.527037 110.50564 56.828125 109.60547 C 56.129213 108.7053 55.335539 107.86711 54.46875 107.10156 C 53.601961 106.33601 52.661708 105.64338 51.664062 105.03516 C 50.666418 104.42693 49.612964 103.9028 48.521484 103.47461 C 47.430005 103.04642 46.300638 102.71373 45.152344 102.48828 C 44.00405 102.26283 42.836056 102.14453 41.667969 102.14453 z M 80.306641 117.42188 A 10.227795 10.227795 0 0 0 79.285156 117.47266 A 10.227795 10.227795 0 0 0 78.275391 117.62695 A 10.227795 10.227795 0 0 0 77.283203 117.87891 A 10.227795 10.227795 0 0 0 76.324219 118.23047 A 10.227795 10.227795 0 0 0 75.404297 118.67383 A 10.227795 10.227795 0 0 0 74.53125 119.20898 A 10.227795 10.227795 0 0 0 73.71875 119.82812 A 10.227795 10.227795 0 0 0 72.970703 120.52539 A 10.227795 10.227795 0 0 0 72.294922 121.29297 A 10.227795 10.227795 0 0 0 71.701172 122.125 A 10.227795 10.227795 0 0 0 71.191406 123.01172 A 10.227795 10.227795 0 0 0 70.775391 123.94531 A 10.227795 10.227795 0 0 0 70.453125 124.91406 A 10.227795 10.227795 0 0 0 70.228516 125.91211 A 10.227795 10.227795 0 0 0 70.105469 126.92773 A 10.227795 10.227795 0 0 0 70.080078 127.65039 A 10.227795 10.227795 0 0 0 70.130859 128.67188 A 10.227795 10.227795 0 0 0 70.283203 129.68164 A 10.227795 10.227795 0 0 0 70.537109 130.67383 A 10.227795 10.227795 0 0 0 70.886719 131.63281 A 10.227795 10.227795 0 0 0 71.332031 132.55469 A 10.227795 10.227795 0 0 0 71.865234 133.42578 A 10.227795 10.227795 0 0 0 72.484375 134.24023 A 10.227795 10.227795 0 0 0 73.181641 134.98828 A 10.227795 10.227795 0 0 0 73.949219 135.66211 A 10.227795 10.227795 0 0 0 74.78125 136.25781 A 10.227795 10.227795 0 0 0 75.667969 136.76562 A 10.227795 10.227795 0 0 0 76.601562 137.18359 A 10.227795 10.227795 0 0 0 77.570312 137.50586 A 10.227795 10.227795 0 0 0 78.568359 137.73047 A 10.227795 10.227795 0 0 0 79.583984 137.85352 A 10.227795 10.227795 0 0 0 80.306641 137.87891 A 10.227795 10.227795 0 0 0 81.328125 137.82812 A 10.227795 10.227795 0 0 0 82.337891 137.67578 A 10.227795 10.227795 0 0 0 83.330078 137.42188 A 10.227795 10.227795 0 0 0 84.289062 137.07227 A 10.227795 10.227795 0 0 0 85.210938 136.62695 A 10.227795 10.227795 0 0 0 86.082031 136.09375 A 10.227795 10.227795 0 0 0 86.896484 135.47461 A 10.227795 10.227795 0 0 0 87.644531 134.77734 A 10.227795 10.227795 0 0 0 88.318359 134.00977 A 10.227795 10.227795 0 0 0 88.914062 133.17773 A 10.227795 10.227795 0 0 0 89.421875 132.29102 A 10.227795 10.227795 0 0 0 89.839844 131.35742 A 10.227795 10.227795 0 0 0 90.162109 130.38867 A 10.227795 10.227795 0 0 0 90.386719 129.39062 A 10.227795 10.227795 0 0 0 90.509766 128.375 A 10.227795 10.227795 0 0 0 90.535156 127.65039 A 10.227795 10.227795 0 0 0 90.484375 126.62891 A 10.227795 10.227795 0 0 0 90.332031 125.61914 A 10.227795 10.227795 0 0 0 90.078125 124.62695 A 10.227795 10.227795 0 0 0 89.728516 123.66797 A 10.227795 10.227795 0 0 0 89.283203 122.74609 A 10.227795 10.227795 0 0 0 88.75 121.875 A 10.227795 10.227795 0 0 0 88.130859 121.06055 A 10.227795 10.227795 0 0 0 87.433594 120.3125 A 10.227795 10.227795 0 0 0 86.666016 119.63867 A 10.227795 10.227795 0 0 0 85.833984 119.04297 A 10.227795 10.227795 0 0 0 84.947266 118.53516 A 10.227795 10.227795 0 0 0 84.013672 118.11719 A 10.227795 10.227795 0 0 0 83.044922 117.79492 A 10.227795 10.227795 0 0 0 82.046875 117.57031 A 10.227795 10.227795 0 0 0 81.03125 117.44727 A 10.227795 10.227795 0 0 0 80.306641 117.42188 z "
       transform="matrix(0.26458333,0,0,0.26458333,0,257.31251)"
       id="path1880" />
    <path
       style="opacity:0.23800001;fill:#ffffff;fill-opacity:1;stroke:none;stroke-width:0.26458332px;stroke-linecap:butt;stroke-linejoin:miter;stroke-opacity:1"
       d="m 19.84375,259.34933 c -8.8857,0 -14.0797608,9.48073 -14.0797608,18.92236 0,0 1.7175332,-16.91778 14.0797608,-16.91778 12.362227,0 14.07976,16.91778 14.07976,16.91778 0,-9.44163 -5.19406,-18.92236 -14.07976,-18.92236 z"
       id="path4669-4"
       inkscape:connector-curvature="0"
       sodipodi:nodetypes="scscs" />
    <path
       style="opacity:0.54100001;fill:#000000;stroke:none;stroke-width:0.26458332px;stroke-linecap:butt;stroke-linejoin:miter;stroke-opacity:1"
       d="m 5.7639892,278.27169 c 0.2495754,12.68227 10.9383318,16.69149 14.0797608,16.69149 3.141429,0 13.830186,-4.00922 14.07976,-16.69149 -1.821762,10.2695 -10.606269,13.43381 -14.07976,13.43381 -3.473491,0 -12.2579969,-3.16431 -14.0797608,-13.43381 z"
       id="path4617-4"
       inkscape:connector-curvature="0" />
    <path
       style="fill:none;stroke:#000000;stroke-width:1.05833328;stroke-linecap:butt;stroke-linejoin:miter;stroke-miterlimit:4;stroke-dasharray:none;stroke-opacity:1"
       d="m 19.84375,259.34933 c -5.953125,0 -14.0797608,5.97667 -14.0797608,18.92236 0,10.44158 7.3398598,16.69149 14.0797608,16.69149 6.739901,0 14.07976,-6.24991 14.07976,-16.69149 0,-12.94569 -8.126635,-18.92236 -14.07976,-18.92236 z"
       id="path4584-7"
       inkscape:connector-curvature="0" />
  </g>
</svg>
