<?xml version="1.0" encoding="UTF-8" standalone="no"?>
<!-- Created with Inkscape (http://www.inkscape.org/) -->

<svg
   xmlns:dc="http://purl.org/dc/elements/1.1/"
   xmlns:cc="http://creativecommons.org/ns#"
   xmlns:rdf="http://www.w3.org/1999/02/22-rdf-syntax-ns#"
   xmlns:svg="http://www.w3.org/2000/svg"
   xmlns="http://www.w3.org/2000/svg"
   xmlns:sodipodi="http://sodipodi.sourceforge.net/DTD/sodipodi-0.dtd"
   xmlns:inkscape="http://www.inkscape.org/namespaces/inkscape"
   width="150"
   height="150"
   viewBox="0 0 39.687499 39.687499"
   version="1.1"
   id="svg8"
   inkscape:version="0.92.4 (5da689c313, 2019-01-14)"
   sodipodi:docname="MHST2-Zamtrios Egg.svg">
  <defs
     id="defs2" />
  <sodipodi:namedview
     id="base"
     pagecolor="#ffffff"
     bordercolor="#666666"
     borderopacity="1.0"
     inkscape:pageopacity="0.0"
     inkscape:pageshadow="2"
     inkscape:zoom="2.8"
     inkscape:cx="121.94104"
     inkscape:cy="85.14934"
     inkscape:document-units="px"
     inkscape:current-layer="layer1"
     showgrid="false"
     units="px"
     inkscape:window-width="1304"
     inkscape:window-height="745"
     inkscape:window-x="-8"
     inkscape:window-y="-8"
     inkscape:window-maximized="1"
     showguides="true"
     inkscape:guide-bbox="true"
     inkscape:snap-smooth-nodes="false"
     inkscape:snap-global="true">
    <inkscape:grid
       type="xygrid"
       id="grid878" />
  </sodipodi:namedview>
  <metadata
     id="metadata5">
    <rdf:RDF>
      <cc:Work
         rdf:about="">
        <dc:format>image/svg+xml</dc:format>
        <dc:type
           rdf:resource="http://purl.org/dc/dcmitype/StillImage" />
        <dc:title></dc:title>
      </cc:Work>
    </rdf:RDF>
  </metadata>
  <g
     inkscape:label="Layer 1"
     inkscape:groupmode="layer"
     id="layer1"
     transform="translate(0,-257.31251)">
    <path
       inkscape:connector-curvature="0"
       style="fill:#00b5b8;fill-opacity:1;stroke:none;stroke-width:1.05833328;stroke-linecap:butt;stroke-linejoin:miter;stroke-miterlimit:4;stroke-dasharray:none;stroke-opacity:1"
       d="m 19.84375,259.34934 c -5.953125,0 -14.0797614,5.97667 -14.0797614,18.92236 0,10.44157 7.3398604,16.69148 14.0797614,16.69148 6.739901,0 14.079758,-6.24991 14.079758,-16.69148 0,-12.94569 -8.126633,-18.92236 -14.079758,-18.92236 z"
       id="path4584-5-7" />
    <path
       style="fill:#ff6b00;stroke:none;stroke-width:1px;stroke-linecap:butt;stroke-linejoin:miter;stroke-opacity:1;fill-opacity:1"
       d="M 79.107422 7.5 C 93.75028 22.321418 93.214003 45.536261 100.89258 45.714844 C 108.57115 45.893237 104.28515 29.107166 95.535156 13.75 C 95.535156 13.75 83.214563 7.3018016 79.107422 7.5 z M 61.982422 9.8046875 C 57.9211 10.447774 46.101563 18.916016 46.101562 18.916016 C 36.915324 49.662813 36.548472 62.74531 44.15625 63.800781 C 50.922976 64.739578 48.88211 34.978042 61.982422 9.8046875 z M 69.197266 28.839844 C 64.830581 29.079428 63.215124 46.785694 64.822266 67.5 C 66.429411 88.214268 69.464005 107.32171 73.392578 106.60742 C 77.321148 105.89317 78.92885 86.070618 77.857422 67.677734 C 76.785994 49.28489 74.380344 28.555623 69.197266 28.839844 z M 28.572266 46.785156 C 27.500838 46.249446 19.284877 65.356564 21.427734 84.285156 C 23.570591 103.21371 32.857422 117.67773 32.857422 117.67773 C 37.321707 110.89201 28.035435 91.963471 27.142578 81.427734 C 26.249721 70.892036 29.643694 47.320866 28.572266 46.785156 z M 122.67773 48.035156 C 121.78489 48.570866 122.32171 74.106279 121.60742 88.927734 C 120.89314 103.74915 114.10742 121.25 114.10742 121.25 C 121.42885 113.39285 127.14342 98.928843 128.21484 82.857422 C 129.28628 66.786001 123.57059 47.499446 122.67773 48.035156 z M 97.714844 60.572266 C 92.531766 60.288045 94.768694 76.911842 93.697266 95.304688 C 92.625838 113.69757 85.661278 132.09043 89.589844 132.80469 C 93.518421 133.51898 102.9827 115.4838 104.58984 94.769531 C 106.19699 74.055225 102.08153 60.81185 97.714844 60.572266 z M 46.132812 85.029297 C 41.588908 85.380393 43.519385 103.08597 47.681641 115.67773 C 53.464065 133.1709 67.452325 143.93269 71.427734 143.55859 C 75.403159 143.18442 65.479433 138.42329 59.291016 118.58984 C 54.882869 104.46204 54.076973 86.244129 46.59375 85.050781 C 46.433559 85.025235 46.279391 85.017971 46.132812 85.029297 z "
       transform="matrix(0.26458333,0,0,0.26458333,0,257.31251)"
       id="path1496" />
    <path
       style="opacity:0.23800001;fill:#ffffff;fill-opacity:1;stroke:none;stroke-width:0.26458332px;stroke-linecap:butt;stroke-linejoin:miter;stroke-opacity:1"
       d="m 19.84375,259.34933 c -8.8857,0 -14.0797608,9.48073 -14.0797608,18.92236 0,0 1.7175332,-16.91778 14.0797608,-16.91778 12.362227,0 14.07976,16.91778 14.07976,16.91778 0,-9.44163 -5.19406,-18.92236 -14.07976,-18.92236 z"
       id="path4669-4"
       inkscape:connector-curvature="0"
       sodipodi:nodetypes="scscs" />
    <path
       style="opacity:0.54100001;fill:#000000;stroke:none;stroke-width:0.26458332px;stroke-linecap:butt;stroke-linejoin:miter;stroke-opacity:1"
       d="m 5.7639892,278.27169 c 0.2495754,12.68227 10.9383318,16.69149 14.0797608,16.69149 3.141429,0 13.830186,-4.00922 14.07976,-16.69149 -1.821762,10.2695 -10.606269,13.43381 -14.07976,13.43381 -3.473491,0 -12.2579969,-3.16431 -14.0797608,-13.43381 z"
       id="path4617-4"
       inkscape:connector-curvature="0" />
    <path
       style="fill:none;stroke:#000000;stroke-width:1.05833328;stroke-linecap:butt;stroke-linejoin:miter;stroke-miterlimit:4;stroke-dasharray:none;stroke-opacity:1"
       d="m 19.84375,259.34933 c -5.953125,0 -14.0797608,5.97667 -14.0797608,18.92236 0,10.44158 7.3398598,16.69149 14.0797608,16.69149 6.739901,0 14.07976,-6.24991 14.07976,-16.69149 0,-12.94569 -8.126635,-18.92236 -14.07976,-18.92236 z"
       id="path4584-7"
       inkscape:connector-curvature="0" />
  </g>
</svg>
