<?xml version="1.0" encoding="UTF-8" standalone="no"?>
<!-- Created with Inkscape (http://www.inkscape.org/) -->

<svg
   xmlns:dc="http://purl.org/dc/elements/1.1/"
   xmlns:cc="http://creativecommons.org/ns#"
   xmlns:rdf="http://www.w3.org/1999/02/22-rdf-syntax-ns#"
   xmlns:svg="http://www.w3.org/2000/svg"
   xmlns="http://www.w3.org/2000/svg"
   xmlns:sodipodi="http://sodipodi.sourceforge.net/DTD/sodipodi-0.dtd"
   xmlns:inkscape="http://www.inkscape.org/namespaces/inkscape"
   width="150"
   height="150"
   viewBox="0 0 39.687499 39.687499"
   version="1.1"
   id="svg8"
   inkscape:version="0.92.4 (5da689c313, 2019-01-14)"
   sodipodi:docname="MHST2-Gammoth Egg.svg">
  <defs
     id="defs2" />
  <sodipodi:namedview
     id="base"
     pagecolor="#ffffff"
     bordercolor="#666666"
     borderopacity="1.0"
     inkscape:pageopacity="0.0"
     inkscape:pageshadow="2"
     inkscape:zoom="1.979899"
     inkscape:cx="21.662254"
     inkscape:cy="57.863072"
     inkscape:document-units="px"
     inkscape:current-layer="layer1"
     showgrid="false"
     units="px"
     inkscape:window-width="1304"
     inkscape:window-height="745"
     inkscape:window-x="-8"
     inkscape:window-y="-8"
     inkscape:window-maximized="1"
     showguides="true"
     inkscape:guide-bbox="true"
     inkscape:snap-smooth-nodes="true"
     inkscape:snap-global="true">
    <inkscape:grid
       type="xygrid"
       id="grid878" />
  </sodipodi:namedview>
  <metadata
     id="metadata5">
    <rdf:RDF>
      <cc:Work
         rdf:about="">
        <dc:format>image/svg+xml</dc:format>
        <dc:type
           rdf:resource="http://purl.org/dc/dcmitype/StillImage" />
        <dc:title></dc:title>
      </cc:Work>
    </rdf:RDF>
  </metadata>
  <g
     inkscape:label="Layer 1"
     inkscape:groupmode="layer"
     id="layer1"
     transform="translate(0,-257.31251)">
    <path
       inkscape:connector-curvature="0"
       style="fill:#0f1d52;fill-opacity:1;stroke:none;stroke-width:1.05833328;stroke-linecap:butt;stroke-linejoin:miter;stroke-miterlimit:4;stroke-dasharray:none;stroke-opacity:1"
       d="m 19.84375,259.34934 c -5.953125,0 -14.0797614,5.97667 -14.0797614,18.92236 0,10.44157 7.3398604,16.69148 14.0797614,16.69148 6.739901,0 14.079758,-6.24991 14.079758,-16.69148 0,-12.94569 -8.126633,-18.92236 -14.079758,-18.92236 z"
       id="path4584-5" />
    <path
       inkscape:connector-curvature="0"
       style="fill:#9f1000;fill-opacity:1;stroke:none;stroke-width:0.26458332px;stroke-linecap:butt;stroke-linejoin:miter;stroke-opacity:1"
       d="m 19.210197,259.48189 -2.990516,0.70176 c 0,0 0.968907,1.13576 0.868681,1.45314 -0.100226,0.31738 -1.035595,1.15291 -1.035595,1.15291 0,0 1.670725,0.0332 1.770951,0.63458 0.100226,0.60135 -0.451135,2.33836 -0.451135,2.33836 0,0 2.02113,-1.4865 2.271696,-1.30276 0.250565,0.18375 0.08371,1.78748 0.08371,1.78748 0,0 1.419683,-1.40336 1.920813,-1.42006 0.501131,-0.0167 1.687212,0.76844 2.25516,0.81855 -0.133635,-0.63476 -1.470026,-2.10468 -1.486731,-2.37195 -0.01671,-0.26727 0.90227,-1.62005 0.90227,-1.62005 0,0 -1.687455,0.50082 -1.871203,0.13332 -0.183747,-0.3675 0.701766,-1.82056 0.701766,-1.82056 l -1.069186,-0.41754 c 0,0 -0.701703,0.75137 -1.119311,0.75137 -0.417609,0 -0.751375,-0.81855 -0.751375,-0.81855 z m 8.167976,2.70629 -0.01654,0.0837 c 0,0 -0.23363,0.96861 -0.434081,1.05213 -0.200453,0.0835 -1.135848,-0.18397 -1.135848,-0.18397 0,0 0.76808,0.86895 0.751374,1.25315 -0.0167,0.3842 0.601515,1.52024 0.601515,1.88774 0.451016,-0.46772 1.453364,-1.18625 2.305285,-0.95239 0.851922,0.23386 0.801503,0.10025 0.801503,0.10025 z m -16.653247,1.7508 -0.9684159,0.77928 c 0,0 -0.9684163,2.26815 -0.4723225,1.53582 0.4960937,-0.73233 1.4999444,-0.43727 1.9606034,-0.44907 -0.543338,-0.46066 -0.519865,-1.86603 -0.519865,-1.86603 z m 2.982247,2.11512 c -0.165704,0.91467 0.931392,3.10787 0.630453,4.2354 -0.254083,0.95192 -0.940939,1.5957 -2.036052,2.28409 0,0 2.759061,-0.0537 3.071648,0.47388 0.312586,0.52767 -3.289205,4.94646 -3.289205,4.94646 0,0 4.792096,-1.30415 5.47305,-0.67954 0.680964,0.62462 -0.0052,3.622 -0.0052,3.622 0,0 1.219549,-2.11177 1.951819,-1.8433 0.732272,0.26846 2.346895,2.6264 3.965133,3.92793 -0.31804,-2.0522 -1.55267,-4.62972 -1.419035,-5.39812 0.133634,-0.7684 2.572452,-0.76843 2.572452,-0.76843 0,0 -2.438663,-1.5035 -2.639115,-2.40554 -0.200452,-0.90203 2.906283,-4.40955 2.906282,-4.40955 10e-7,0 -5.044732,1.16913 -5.345409,0.63459 -0.300679,-0.53454 0.668176,-2.50579 0.668176,-2.50579 -1.143722,0.6042 -2.251989,0.83521 -3.203422,0.57929 -1.126932,-0.30314 -2.426631,-2.37954 -3.301608,-2.69337 z m 18.06453,2.58175 c 0,0 -0.501264,1.15274 -1.169437,1.21956 0,0 1.520293,0.56806 1.420069,1.06919 -0.100227,0.50113 -1.586984,2.25516 -1.586984,2.25516 0,0 2.121202,-0.43434 2.338358,-0.10025 0.217157,0.33408 0.117306,1.98747 0.117306,1.98747 l 0.584459,-1.11879 z m -25.446508,3.51503 -0.6123656,2.46548 0.2904214,5.93763 c 0.3354988,-0.28347 0.6612403,0.003 0.892452,0.14314 0.4637974,0.2805 1.3182058,1.76969 2.2489583,2.87269 0.055968,-1.44214 -0.4434567,-2.99728 -0.2501138,-3.50366 0.1933396,-0.50637 2.1244177,-0.38241 2.1244177,-0.38241 0,0 -1.6642572,-1.55068 -1.6810339,-2.19263 -0.016777,-0.64195 2.5357619,-2.32027 2.5357619,-2.32027 0,0 -3.4631842,-0.17417 -3.5971959,-0.57877 -0.1340146,-0.40461 1.089856,-1.88774 1.089856,-1.88774 -1.112889,0.22764 -2.2483071,0.14337 -3.0411581,-0.55346 z m 23.32519,4.31963 c 0,0 -0.751869,1.01863 -1.319816,1.36943 -0.567946,0.35079 -1.470194,0.91881 -1.470194,0.91881 0,0 0.885439,0.58455 1.069187,0.93534 0.183747,0.35079 0.300757,1.28623 0.300757,1.28623 0,0 0.701688,-0.83514 1.069184,-1.0356 0.367495,-0.20045 1.453142,-0.11679 1.453142,-0.11679 0,0 -0.53467,-0.70134 -0.501261,-1.05213 0.03341,-0.35079 -0.550887,-1.53689 -0.600999,-2.30529 z m 3.774964,4.87774 c 0,0 -0.567653,0.76845 -0.851628,0.81856 0,0 0.484116,0.61761 0.133327,0.91829 -0.350793,0.30068 -1.302764,0.56792 -1.302764,0.56792 0,0 1.319649,0.36769 1.336352,0.75189 0.01672,0.3842 0.718302,-1.20251 0.718302,-1.20251 z m -17.389119,0.58446 c 0,0 -0.150625,0.6681 -0.434599,1.0356 -0.283974,0.36749 -1.469678,0.46767 -1.469678,0.46767 0,0 0.634847,0.61796 0.968934,0.93534 0.334084,0.31739 0.467451,1.05273 0.283703,1.35341 0.283974,-0.18375 1.336264,-0.43435 1.653646,-0.76843 0.317383,-0.33409 2.054655,-0.55139 2.054655,-0.55139 0,0 -1.035236,-0.51789 -1.636593,-0.9188 -0.601357,-0.4009 -1.420068,-1.5534 -1.420068,-1.5534 z m 9.487793,1.38648 c 0,0 0.411693,1.38637 0.350883,2.38022 -0.05745,0.93902 -1.653646,0.81028 -1.653646,0.81028 0,0 1.068902,0.21731 1.302763,1.21957 0.233861,1.00226 -1.269173,1.9544 -1.269173,1.9544 0,0 1.235987,-0.40079 2.121317,-0.31729 0.885332,0.0835 0,1.9544 0,1.9544 0,0 0.551015,-0.36748 1.102259,-0.61805 0.551243,-0.25056 1.253154,0.55087 1.253154,0.55087 l 2.522326,-2.93987 c 0,0 -1.269379,0.0667 -1.403014,-0.40101 -0.133633,-0.46772 1.837097,-2.02106 1.837094,-2.02107 6e-6,0 -2.538775,0.61824 -2.856156,0.0336 -0.317383,-0.58465 0.668177,-1.82107 0.668177,-1.82107 0,0 -1.102778,0.81858 -1.770952,0.86868 -0.668171,0.0501 -2.205032,-1.65365 -2.205032,-1.65365 z m -16.937984,3.20704 c 0.7015823,0.85192 1.1192486,2.5559 1.536857,3.79202 0.417609,1.23612 5.278748,3.47472 5.278748,3.47472 0,0 0.133534,-0.73528 0.935343,-0.4346 0.801808,0.30068 3.724837,1.06919 3.724837,1.06919 0,0 -2.756292,-1.50316 -2.923336,-2.38849 -0.167043,-0.88533 2.238623,-1.95492 2.238623,-1.95492 0,0 -3.140649,0.83547 -3.524849,0.28422 -0.3842,-0.55124 0.317293,-2.9068 0.317293,-2.9068 0,0 -2.605463,1.37023 -3.023071,1.18649 -0.417609,-0.18374 -0.200504,-1.98799 -0.200504,-1.98799 0,0 -1.035677,0.95207 -2.004529,0.98547 -0.9688523,0.0334 -1.9210993,-1.11931 -2.355412,-1.11931 z"
       id="path4723" />
    <path
       style="opacity:0.23800001;fill:#ffffff;fill-opacity:1;stroke:none;stroke-width:0.26458332px;stroke-linecap:butt;stroke-linejoin:miter;stroke-opacity:1"
       d="m 19.84375,259.34933 c -8.8857,0 -14.0797608,9.48073 -14.0797608,18.92236 0,0 1.7175332,-16.91778 14.0797608,-16.91778 12.362227,0 14.07976,16.91778 14.07976,16.91778 0,-9.44163 -5.19406,-18.92236 -14.07976,-18.92236 z"
       id="path4669"
       inkscape:connector-curvature="0"
       sodipodi:nodetypes="scscs" />
    <path
       style="opacity:0.54100001;fill:#000000;stroke:none;stroke-width:0.26458332px;stroke-linecap:butt;stroke-linejoin:miter;stroke-opacity:1"
       d="m 5.7639892,278.27169 c 0.2495754,12.68227 10.9383318,16.69149 14.0797608,16.69149 3.141429,0 13.830186,-4.00922 14.07976,-16.69149 -1.821762,10.2695 -10.606269,13.43381 -14.07976,13.43381 -3.473491,0 -12.2579969,-3.16431 -14.0797608,-13.43381 z"
       id="path4617"
       inkscape:connector-curvature="0" />
    <path
       style="fill:none;stroke:#000000;stroke-width:1.05833328;stroke-linecap:butt;stroke-linejoin:miter;stroke-miterlimit:4;stroke-dasharray:none;stroke-opacity:1"
       d="m 19.84375,259.34933 c -5.953125,0 -14.0797608,5.97667 -14.0797608,18.92236 0,10.44158 7.3398598,16.69149 14.0797608,16.69149 6.739901,0 14.07976,-6.24991 14.07976,-16.69149 0,-12.94569 -8.126635,-18.92236 -14.07976,-18.92236 z"
       id="path4584"
       inkscape:connector-curvature="0" />
  </g>
</svg>
