<?xml version="1.0" encoding="UTF-8" standalone="no"?>
<!-- Created with Inkscape (http://www.inkscape.org/) -->

<svg
   xmlns:dc="http://purl.org/dc/elements/1.1/"
   xmlns:cc="http://creativecommons.org/ns#"
   xmlns:rdf="http://www.w3.org/1999/02/22-rdf-syntax-ns#"
   xmlns:svg="http://www.w3.org/2000/svg"
   xmlns="http://www.w3.org/2000/svg"
   xmlns:sodipodi="http://sodipodi.sourceforge.net/DTD/sodipodi-0.dtd"
   xmlns:inkscape="http://www.inkscape.org/namespaces/inkscape"
   width="150"
   height="150"
   viewBox="0 0 39.687499 39.687499"
   version="1.1"
   id="svg8"
   inkscape:version="0.92.4 (5da689c313, 2019-01-14)"
   sodipodi:docname="MHST2-Palamute Dragon Egg.svg">
  <defs
     id="defs2" />
  <sodipodi:namedview
     id="base"
     pagecolor="#ffffff"
     bordercolor="#666666"
     borderopacity="1.0"
     inkscape:pageopacity="0.0"
     inkscape:pageshadow="2"
     inkscape:zoom="3.959798"
     inkscape:cx="104.97762"
     inkscape:cy="58.826093"
     inkscape:document-units="px"
     inkscape:current-layer="layer1"
     showgrid="false"
     units="px"
     inkscape:window-width="1304"
     inkscape:window-height="745"
     inkscape:window-x="-8"
     inkscape:window-y="-8"
     inkscape:window-maximized="1"
     showguides="true"
     inkscape:guide-bbox="true"
     inkscape:snap-smooth-nodes="true"
     inkscape:snap-global="true"
     inkscape:snap-page="true">
    <inkscape:grid
       type="xygrid"
       id="grid878" />
  </sodipodi:namedview>
  <metadata
     id="metadata5">
    <rdf:RDF>
      <cc:Work
         rdf:about="">
        <dc:format>image/svg+xml</dc:format>
        <dc:type
           rdf:resource="http://purl.org/dc/dcmitype/StillImage" />
        <dc:title></dc:title>
      </cc:Work>
    </rdf:RDF>
  </metadata>
  <g
     inkscape:label="Layer 1"
     inkscape:groupmode="layer"
     id="layer1"
     transform="translate(0,-257.31251)">
    <path
       inkscape:connector-curvature="0"
       style="fill:#fcecce;fill-opacity:1;stroke:none;stroke-width:1.05833328;stroke-linecap:butt;stroke-linejoin:miter;stroke-miterlimit:4;stroke-dasharray:none;stroke-opacity:1"
       d="m 19.84375,259.34934 c -5.953125,0 -14.0797612,5.97667 -14.0797612,18.92236 0,10.44157 7.3398602,16.69148 14.0797612,16.69148 6.739901,0 14.079758,-6.24991 14.079758,-16.69148 0,-12.94569 -8.126633,-18.92236 -14.079758,-18.92236 z"
       id="path4584-5" />
    <path
       style="fill:#b60720;fill-opacity:1;stroke:none;stroke-width:0.26458332px;stroke-linecap:butt;stroke-linejoin:miter;stroke-opacity:1"
       d="m 19.923095,261.72035 c -6.094866,0 -8.787577,3.56722 -8.787577,3.56722 7.455771,-5.92271 14.593679,0.57731 14.259594,1.54616 -0.334089,0.96886 -0.401924,3.44941 1.603519,4.67723 1.637027,1.00226 3.741711,0.26721 3.708302,-2.20503 -0.03341,-2.47225 -4.688972,-7.58558 -10.783838,-7.58558 z m -1.77767,3.45973 c -1.002259,0 -1.603519,0.3173 -1.603519,0.3173 0,0 1.269716,1.03565 1.369942,1.90427 0.100226,0.86863 0,2.53912 0,2.87321 0,0.33409 -1.837614,2.17145 -1.837614,2.17145 l 2.472201,2.33887 h 2.639115 l 2.338875,-2.40554 c 0,0 -1.703772,-1.63708 -1.703772,-2.20503 0,-0.56794 -0.417879,-4.99453 -3.675228,-4.99453 z m -5.841503,0.90227 c -1.188741,0.0374 -2.6499291,1.23768 -3.6561078,3.02359 -2.1907082,4.77962 -2.7967122,10.46885 -0.8697145,14.83527 0,0 -1.0280528,-6.29985 -0.2480469,-8.69714 1.2062061,-3.70718 2.1062929,-3.54168 3.0974852,-2.96571 0.991191,0.57598 4.299909,-1.38317 3.500562,-4.45503 -0.324735,-1.24794 -1.010829,-1.76655 -1.824178,-1.74098 z m 18.970934,3.65818 c 0,0 1.937914,5.24514 0.802018,9.15396 -1.135893,3.90882 -1.904204,3.57482 -2.93987,2.97346 -1.035675,-0.60135 -4.443267,1.36975 -3.60805,4.57699 0.835217,3.20723 4.275998,2.17148 6.046659,-0.96894 1.77066,-3.14041 2.305121,-11.79325 -0.300757,-15.73547 z m -6.806819,3.4587 -2.338359,2.4722 v 2.63912 l 2.405022,2.33887 c 0,0 1.637083,-1.70377 2.205033,-1.70377 0.567939,0 3.925589,-0.0505 4.209561,-3.35793 0.08574,-0.99858 -0.0832,-1.36943 -0.0832,-1.36943 0,0 -0.517859,0.68475 -1.386478,0.78497 -0.86863,0.10023 -2.506049,0.0336 -2.840138,0.0336 -0.33409,0 -2.171443,-1.83762 -2.171443,-1.83762 z m -9.237162,0.0796 c 0,0 -1.637083,1.70378 -2.205034,1.70378 -0.56794,0 -3.9255877,0.0499 -4.2095616,3.35741 -0.08574,0.99858 0.083716,1.36995 0.083716,1.36995 0,0 0.5178584,-0.68475 1.3864786,-0.78497 0.86863,-0.10023 2.50553,-0.0336 2.83962,-0.0336 0.33409,0 2.171443,1.83762 2.171443,1.83762 l 2.338876,-2.4722 v -2.63964 z m 3.281453,5.67976 -2.338875,2.40554 c 0,0 1.703772,1.63708 1.703772,2.20503 0,0.56794 0.41788,4.99453 3.675228,4.99453 1.00226,0 1.603519,-0.31729 1.603519,-0.31729 0,0 -1.269716,-1.03566 -1.369942,-1.90428 -0.100226,-0.86863 0,-2.53912 0,-2.87321 0,-0.33409 1.837614,-2.17144 1.837614,-2.17144 l -2.472201,-2.33888 z m -7.414017,2.92747 c -1.1618993,0.0568 -2.2188774,0.91643 -2.2742801,2.61535 -0.080595,2.47116 4.3347471,7.79348 10.4231361,8.07444 6.08838,0.28096 8.942607,-3.15795 8.942607,-3.15795 -7.720867,5.57272 -14.551679,-1.24951 -14.173295,-2.20193 0.378403,-0.95243 0.645202,-3.67364 -1.352889,-4.9134 -0.487415,-0.30243 -1.037144,-0.44235 -1.565279,-0.41651 z"
       id="path851"
       inkscape:connector-curvature="0" />
    <path
       style="opacity:0.23800001;fill:#ffffff;fill-opacity:1;stroke:none;stroke-width:0.26458332px;stroke-linecap:butt;stroke-linejoin:miter;stroke-opacity:1"
       d="m 19.84375,259.34933 c -8.8857,0 -14.0797606,9.48073 -14.0797606,18.92236 0,0 1.7175332,-16.91778 14.0797606,-16.91778 12.362227,0 14.07976,16.91778 14.07976,16.91778 0,-9.44163 -5.19406,-18.92236 -14.07976,-18.92236 z"
       id="path4669"
       inkscape:connector-curvature="0"
       sodipodi:nodetypes="scscs" />
    <path
       style="opacity:0.54100001;fill:#000000;stroke:none;stroke-width:0.26458332px;stroke-linecap:butt;stroke-linejoin:miter;stroke-opacity:1"
       d="m 5.7639894,278.27169 c 0.2495754,12.68227 10.9383316,16.69149 14.0797606,16.69149 3.141429,0 13.830186,-4.00922 14.07976,-16.69149 -1.821762,10.2695 -10.606269,13.43381 -14.07976,13.43381 -3.473491,0 -12.2579967,-3.16431 -14.0797606,-13.43381 z"
       id="path4617"
       inkscape:connector-curvature="0" />
    <path
       style="fill:none;stroke:#000000;stroke-width:1.05833328;stroke-linecap:butt;stroke-linejoin:miter;stroke-miterlimit:4;stroke-dasharray:none;stroke-opacity:1"
       d="m 19.84375,259.34933 c -5.953125,0 -14.0797606,5.97667 -14.0797606,18.92236 0,10.44158 7.3398596,16.69149 14.0797606,16.69149 6.739901,0 14.07976,-6.24991 14.07976,-16.69149 0,-12.94569 -8.126635,-18.92236 -14.07976,-18.92236 z"
       id="path4584"
       inkscape:connector-curvature="0" />
  </g>
</svg>
