<?xml version="1.0" encoding="UTF-8" standalone="no"?>
<!-- Created with Inkscape (http://www.inkscape.org/) -->

<svg
   xmlns:dc="http://purl.org/dc/elements/1.1/"
   xmlns:cc="http://creativecommons.org/ns#"
   xmlns:rdf="http://www.w3.org/1999/02/22-rdf-syntax-ns#"
   xmlns:svg="http://www.w3.org/2000/svg"
   xmlns="http://www.w3.org/2000/svg"
   xmlns:sodipodi="http://sodipodi.sourceforge.net/DTD/sodipodi-0.dtd"
   xmlns:inkscape="http://www.inkscape.org/namespaces/inkscape"
   width="150"
   height="150"
   viewBox="0 0 39.687499 39.687499"
   version="1.1"
   id="svg8"
   inkscape:version="0.92.4 (5da689c313, 2019-01-14)"
   sodipodi:docname="MHST2-Stygian Zinogre Egg.svg">
  <defs
     id="defs2" />
  <sodipodi:namedview
     id="base"
     pagecolor="#ffffff"
     bordercolor="#666666"
     borderopacity="1.0"
     inkscape:pageopacity="0.0"
     inkscape:pageshadow="2"
     inkscape:zoom="1.979899"
     inkscape:cx="123.22099"
     inkscape:cy="101.64007"
     inkscape:document-units="px"
     inkscape:current-layer="layer1"
     showgrid="false"
     units="px"
     inkscape:window-width="1304"
     inkscape:window-height="745"
     inkscape:window-x="-8"
     inkscape:window-y="-8"
     inkscape:window-maximized="1"
     showguides="true"
     inkscape:guide-bbox="true"
     inkscape:snap-smooth-nodes="false"
     inkscape:snap-global="true">
    <inkscape:grid
       type="xygrid"
       id="grid878" />
  </sodipodi:namedview>
  <metadata
     id="metadata5">
    <rdf:RDF>
      <cc:Work
         rdf:about="">
        <dc:format>image/svg+xml</dc:format>
        <dc:type
           rdf:resource="http://purl.org/dc/dcmitype/StillImage" />
        <dc:title></dc:title>
      </cc:Work>
    </rdf:RDF>
  </metadata>
  <g
     inkscape:label="Layer 1"
     inkscape:groupmode="layer"
     id="layer1"
     transform="translate(0,-257.31251)">
    <path
       inkscape:connector-curvature="0"
       style="fill:#4019d2;fill-opacity:1;stroke:none;stroke-width:1.05833328;stroke-linecap:butt;stroke-linejoin:miter;stroke-miterlimit:4;stroke-dasharray:none;stroke-opacity:1"
       d="m 19.84375,259.34934 c -5.953125,0 -14.0797614,5.97667 -14.0797614,18.92236 0,10.44157 7.3398604,16.69148 14.0797614,16.69148 6.739901,0 14.079758,-6.24991 14.079758,-16.69148 0,-12.94569 -8.126633,-18.92236 -14.079758,-18.92236 z"
       id="path4584-5-7" />
    <path
       style="fill:#ede1a4;stroke:none;stroke-width:1px;stroke-linecap:butt;stroke-linejoin:miter;stroke-opacity:1;fill-opacity:1"
       d="M 75 7.6972656 L 65.154297 8.8320312 C 65.154297 8.8320312 70.962701 13.503335 72.730469 16.28125 C 74.498233 19.059165 75.130859 41.660156 75.130859 41.660156 C 75.130859 41.660156 82.959663 20.952422 83.085938 18.300781 C 83.212208 15.649102 76.89814 12.114349 75.761719 11.230469 C 74.625313 10.346588 75 7.6972656 75 7.6972656 z M 89.271484 13.376953 C 89.271484 13.376953 89.651173 30.043549 90.15625 32.316406 C 90.661327 34.589263 96.848827 39.76748 96.34375 41.914062 C 95.838673 44.060645 87.378906 55.928742 87.378906 57.191406 C 87.378906 58.454109 95.963677 70.955659 96.46875 73.228516 C 96.973827 75.501335 97.101563 94.820312 97.101562 94.820312 C 97.101562 94.820312 105.94072 72.59716 105.81445 70.703125 C 105.68818 68.80909 98.994141 59.970085 98.994141 57.697266 C 98.994141 55.424409 104.42392 42.670784 104.80273 41.029297 C 105.18153 39.38781 97.859077 31.686324 96.722656 29.666016 C 95.586235 27.645707 89.271484 13.376953 89.271484 13.376953 z M 52.78125 17.291016 C 52.78125 17.291016 33.967183 34.715837 32.957031 38.503906 C 31.946878 42.291976 36.366404 57.191903 35.861328 59.085938 C 35.356252 60.979972 28.41084 75.501382 28.537109 78.279297 C 28.66338 81.057212 36.365432 91.412133 37.123047 93.9375 C 37.880661 96.462867 36.617188 111.99219 36.617188 111.99219 C 36.617188 111.99219 47.351563 95.45217 47.351562 91.664062 C 47.351562 87.875993 40.407032 78.15232 40.912109 75.626953 C 41.417183 73.101586 47.603615 64.263274 47.982422 60.222656 C 48.361229 56.182039 42.427051 46.458877 42.300781 43.554688 C 42.174507 40.650498 52.78125 17.291016 52.78125 17.291016 z M 64.775391 25.373047 C 64.775391 25.373047 54.927834 45.196816 55.306641 48.353516 C 55.685451 51.510253 66.796776 61.863473 66.417969 65.146484 C 66.039162 68.429495 59.34639 76.259377 59.472656 77.269531 C 59.59893 78.279686 71.97324 91.032219 71.720703 92.294922 C 71.468155 93.557586 66.923344 103.15356 67.554688 105.17383 C 68.186035 107.19414 77.277344 132.44922 77.277344 132.44922 C 77.277344 132.44922 79.297657 108.20573 79.802734 105.80664 C 80.307812 103.40751 86.242188 92.925964 86.242188 91.158203 C 86.242188 89.390442 76.013576 80.17224 75.634766 76.636719 C 75.255959 73.101197 78.161327 61.737785 77.65625 59.84375 C 77.151177 57.949715 63.386619 48.60604 63.007812 45.828125 C 62.629002 43.05021 64.775391 25.373047 64.775391 25.373047 z M 117.80859 37.367188 C 117.80859 37.367188 114.39923 49.742089 114.9043 51.888672 C 115.40938 54.035255 121.21816 61.61242 121.4707 63.253906 C 121.72325 64.895393 117.43047 79.289048 117.93555 81.814453 C 118.44063 84.33982 123.11328 90.021302 123.11328 91.789062 C 123.11328 93.556823 115.53711 104.54394 115.53711 105.80664 C 115.53711 107.06931 117.55664 117.04297 117.55664 117.04297 C 117.55664 117.04297 128.39286 102.24857 128.21484 79.214844 C 128.03683 56.181117 117.80859 37.367188 117.80859 37.367188 z M 49.648438 105.68555 C 49.648438 105.68555 50.552518 118.69185 50.40625 121.08984 C 50.27998 123.16027 47.881454 129.50415 47.628906 132.70703 C 53.437284 139.14674 66.316406 140.91406 66.316406 140.91406 C 64.927445 137.75733 57.72979 132.20029 57.603516 131.31641 C 57.477245 130.43253 57.351562 122.22678 57.351562 120.45898 C 57.351562 118.69122 49.648438 105.68555 49.648438 105.68555 z M 106.31836 105.80664 C 106.31836 105.80664 94.449219 117.8006 94.449219 119.56836 C 94.449219 121.33616 95.964161 128.66104 95.837891 129.54492 C 95.711617 130.4288 90.156539 135.47998 88.767578 138.63672 C 88.767578 138.63672 100.00608 137.3733 105.81445 130.93359 C 105.56191 127.73071 103.16143 121.38683 103.03516 119.31641 C 102.88889 116.91841 106.31836 105.80664 106.31836 105.80664 z "
       transform="matrix(0.26458333,0,0,0.26458333,0,257.31251)"
       id="path1710" />
    <path
       style="opacity:0.23800001;fill:#ffffff;fill-opacity:1;stroke:none;stroke-width:0.26458332px;stroke-linecap:butt;stroke-linejoin:miter;stroke-opacity:1"
       d="m 19.84375,259.34933 c -8.8857,0 -14.0797608,9.48073 -14.0797608,18.92236 0,0 1.7175332,-16.91778 14.0797608,-16.91778 12.362227,0 14.07976,16.91778 14.07976,16.91778 0,-9.44163 -5.19406,-18.92236 -14.07976,-18.92236 z"
       id="path4669-4"
       inkscape:connector-curvature="0"
       sodipodi:nodetypes="scscs" />
    <path
       style="opacity:0.54100001;fill:#000000;stroke:none;stroke-width:0.26458332px;stroke-linecap:butt;stroke-linejoin:miter;stroke-opacity:1"
       d="m 5.7639892,278.27169 c 0.2495754,12.68227 10.9383318,16.69149 14.0797608,16.69149 3.141429,0 13.830186,-4.00922 14.07976,-16.69149 -1.821762,10.2695 -10.606269,13.43381 -14.07976,13.43381 -3.473491,0 -12.2579969,-3.16431 -14.0797608,-13.43381 z"
       id="path4617-4"
       inkscape:connector-curvature="0" />
    <path
       style="fill:none;stroke:#000000;stroke-width:1.05833328;stroke-linecap:butt;stroke-linejoin:miter;stroke-miterlimit:4;stroke-dasharray:none;stroke-opacity:1"
       d="m 19.84375,259.34933 c -5.953125,0 -14.0797608,5.97667 -14.0797608,18.92236 0,10.44158 7.3398598,16.69149 14.0797608,16.69149 6.739901,0 14.07976,-6.24991 14.07976,-16.69149 0,-12.94569 -8.126635,-18.92236 -14.07976,-18.92236 z"
       id="path4584-7"
       inkscape:connector-curvature="0" />
  </g>
</svg>
