<?xml version="1.0" encoding="UTF-8" standalone="no"?>
<!-- Created with Inkscape (http://www.inkscape.org/) -->

<svg
   xmlns:dc="http://purl.org/dc/elements/1.1/"
   xmlns:cc="http://creativecommons.org/ns#"
   xmlns:rdf="http://www.w3.org/1999/02/22-rdf-syntax-ns#"
   xmlns:svg="http://www.w3.org/2000/svg"
   xmlns="http://www.w3.org/2000/svg"
   xmlns:sodipodi="http://sodipodi.sourceforge.net/DTD/sodipodi-0.dtd"
   xmlns:inkscape="http://www.inkscape.org/namespaces/inkscape"
   width="150"
   height="150"
   viewBox="0 0 39.687499 39.687499"
   version="1.1"
   id="svg8"
   inkscape:version="0.92.4 (5da689c313, 2019-01-14)"
   sodipodi:docname="MHST2-Mizutsune Egg.svg">
  <defs
     id="defs2" />
  <sodipodi:namedview
     id="base"
     pagecolor="#ffffff"
     bordercolor="#666666"
     borderopacity="1.0"
     inkscape:pageopacity="0.0"
     inkscape:pageshadow="2"
     inkscape:zoom="1.979899"
     inkscape:cx="-31.507228"
     inkscape:cy="72.185573"
     inkscape:document-units="px"
     inkscape:current-layer="layer1"
     showgrid="false"
     units="px"
     inkscape:window-width="1304"
     inkscape:window-height="745"
     inkscape:window-x="-8"
     inkscape:window-y="-8"
     inkscape:window-maximized="1"
     showguides="true"
     inkscape:guide-bbox="true"
     inkscape:snap-smooth-nodes="false"
     inkscape:snap-global="true">
    <inkscape:grid
       type="xygrid"
       id="grid878" />
  </sodipodi:namedview>
  <metadata
     id="metadata5">
    <rdf:RDF>
      <cc:Work
         rdf:about="">
        <dc:format>image/svg+xml</dc:format>
        <dc:type
           rdf:resource="http://purl.org/dc/dcmitype/StillImage" />
        <dc:title></dc:title>
      </cc:Work>
    </rdf:RDF>
  </metadata>
  <g
     inkscape:label="Layer 1"
     inkscape:groupmode="layer"
     id="layer1"
     transform="translate(0,-257.31251)">
    <path
       inkscape:connector-curvature="0"
       style="fill:#cd3958;fill-opacity:1;stroke:none;stroke-width:1.05833328;stroke-linecap:butt;stroke-linejoin:miter;stroke-miterlimit:4;stroke-dasharray:none;stroke-opacity:1"
       d="m 19.84375,259.34934 c -5.953125,0 -14.0797614,5.97667 -14.0797614,18.92236 0,10.44157 7.3398604,16.69148 14.0797614,16.69148 6.739901,0 14.079758,-6.24991 14.079758,-16.69148 0,-12.94569 -8.126633,-18.92236 -14.079758,-18.92236 z"
       id="path4584-5" />
    <path
       inkscape:connector-curvature="0"
       style="fill:#e1decb;fill-opacity:1;stroke:none;stroke-width:0.26458332px;stroke-linecap:butt;stroke-linejoin:miter;stroke-opacity:1"
       d="m 14.197583,260.90351 -2.102198,1.34617 c 0,0 2.527348,4.13419 8.291484,3.89795 5.764137,-0.23623 8.717297,-2.3859 8.717297,-2.3859 l -2.409671,-2.0314 c 0,0 -1.488208,1.84241 -5.858558,2.0314 -4.370349,0.18899 -6.638354,-2.85822 -6.638354,-2.85822 z m -3.330546,2.62206 -1.5120527,2.0314 c 0,0 1.3465407,6.33118 7.6067707,7.70134 6.26023,1.37016 11.055656,-1.86597 12.709302,-2.76366 1.653646,-0.8977 2.929535,-0.56741 2.929535,-0.56741 l -1.535821,-3.25975 c 0,0 -1.21915,-0.018 -2.340943,0.72141 -1.388497,0.91525 -2.440985,2.30445 -7.486365,2.49132 -7.016183,0.25986 -10.370426,-6.35465 -10.370426,-6.35465 z m -3.0711307,4.53564 -1.3146484,3.74861 c 2.4722431,0.80181 3.4409062,10.05584 11.7930781,10.55697 8.352174,0.50113 10.223376,-3.03987 15.702402,-3.37395 l -0.133842,-4.07572 c -5.311984,0.16704 -4.977815,3.7083 -12.862265,3.7083 -7.884451,0 -10.940492,-9.17042 -13.1847247,-10.56421 z m -2.0164144,7.42383 0.03359,5.41208 c 2.3720165,0.43431 4.6773361,9.02022 11.6597531,9.42113 6.982416,0.4009 11.492488,-3.94195 14.76654,-3.57446 l 1.069184,-3.24115 c -5.913337,-0.13364 -5.546153,3.7754 -14.366046,2.80655 -8.819896,-0.96885 -9.1205693,-9.95552 -13.1630211,-10.82415 z m 2.2386232,11.55899 c 0.9020344,2.6727 4.9110469,7.91889 11.8256349,7.91889 6.914586,0 10.491348,-5.44669 10.491348,-5.44669 -4.109267,-0.53454 -5.880076,4.24295 -11.760005,4.10931 -5.87993,-0.13363 -6.915431,-4.77744 -10.5569779,-6.58151 z"
       id="path840" />
    <path
       style="opacity:0.23800001;fill:#ffffff;fill-opacity:1;stroke:none;stroke-width:0.26458332px;stroke-linecap:butt;stroke-linejoin:miter;stroke-opacity:1"
       d="m 19.84375,259.34933 c -8.8857,0 -14.0797608,9.48073 -14.0797608,18.92236 0,0 1.7175332,-16.91778 14.0797608,-16.91778 12.362227,0 14.07976,16.91778 14.07976,16.91778 0,-9.44163 -5.19406,-18.92236 -14.07976,-18.92236 z"
       id="path4669"
       inkscape:connector-curvature="0"
       sodipodi:nodetypes="scscs" />
    <path
       style="opacity:0.54100001;fill:#000000;stroke:none;stroke-width:0.26458332px;stroke-linecap:butt;stroke-linejoin:miter;stroke-opacity:1"
       d="m 5.7639892,278.27169 c 0.2495754,12.68227 10.9383318,16.69149 14.0797608,16.69149 3.141429,0 13.830186,-4.00922 14.07976,-16.69149 -1.821762,10.2695 -10.606269,13.43381 -14.07976,13.43381 -3.473491,0 -12.2579969,-3.16431 -14.0797608,-13.43381 z"
       id="path4617"
       inkscape:connector-curvature="0" />
    <path
       style="fill:none;stroke:#000000;stroke-width:1.05833328;stroke-linecap:butt;stroke-linejoin:miter;stroke-miterlimit:4;stroke-dasharray:none;stroke-opacity:1"
       d="m 19.84375,259.34933 c -5.953125,0 -14.0797608,5.97667 -14.0797608,18.92236 0,10.44158 7.3398598,16.69149 14.0797608,16.69149 6.739901,0 14.07976,-6.24991 14.07976,-16.69149 0,-12.94569 -8.126635,-18.92236 -14.07976,-18.92236 z"
       id="path4584"
       inkscape:connector-curvature="0" />
  </g>
</svg>
