<?xml version="1.0" encoding="UTF-8" standalone="no"?>
<!-- Created with Inkscape (http://www.inkscape.org/) -->

<svg
   xmlns:dc="http://purl.org/dc/elements/1.1/"
   xmlns:cc="http://creativecommons.org/ns#"
   xmlns:rdf="http://www.w3.org/1999/02/22-rdf-syntax-ns#"
   xmlns:svg="http://www.w3.org/2000/svg"
   xmlns="http://www.w3.org/2000/svg"
   xmlns:sodipodi="http://sodipodi.sourceforge.net/DTD/sodipodi-0.dtd"
   xmlns:inkscape="http://www.inkscape.org/namespaces/inkscape"
   width="150"
   height="150"
   viewBox="0 0 39.687499 39.687499"
   version="1.1"
   id="svg8"
   inkscape:version="0.92.4 (5da689c313, 2019-01-14)"
   sodipodi:docname="MHST2-Nergigante Egg.svg">
  <defs
     id="defs2" />
  <sodipodi:namedview
     id="base"
     pagecolor="#ffffff"
     bordercolor="#666666"
     borderopacity="1.0"
     inkscape:pageopacity="0.0"
     inkscape:pageshadow="2"
     inkscape:zoom="1.979899"
     inkscape:cx="21.662254"
     inkscape:cy="57.863072"
     inkscape:document-units="px"
     inkscape:current-layer="layer1"
     showgrid="false"
     units="px"
     inkscape:window-width="1304"
     inkscape:window-height="745"
     inkscape:window-x="-8"
     inkscape:window-y="-8"
     inkscape:window-maximized="1"
     showguides="true"
     inkscape:guide-bbox="true"
     inkscape:snap-smooth-nodes="true"
     inkscape:snap-global="true">
    <inkscape:grid
       type="xygrid"
       id="grid878" />
  </sodipodi:namedview>
  <metadata
     id="metadata5">
    <rdf:RDF>
      <cc:Work
         rdf:about="">
        <dc:format>image/svg+xml</dc:format>
        <dc:type
           rdf:resource="http://purl.org/dc/dcmitype/StillImage" />
        <dc:title></dc:title>
      </cc:Work>
    </rdf:RDF>
  </metadata>
  <g
     inkscape:label="Layer 1"
     inkscape:groupmode="layer"
     id="layer1"
     transform="translate(0,-257.31251)">
    <path
       inkscape:connector-curvature="0"
       style="fill:#0e0e0b;fill-opacity:1;stroke:none;stroke-width:1.05833328;stroke-linecap:butt;stroke-linejoin:miter;stroke-miterlimit:4;stroke-dasharray:none;stroke-opacity:1"
       d="m 19.84375,259.34934 c -5.953125,0 -14.0797612,5.97667 -14.0797612,18.92236 0,10.44157 7.3398602,16.69148 14.0797612,16.69148 6.739901,0 14.079758,-6.24991 14.079758,-16.69148 0,-12.94569 -8.126633,-18.92236 -14.079758,-18.92236 z"
       id="path4584-5" />
    <path
       style="fill:#d33c06;stroke:none;stroke-width:0.26458332px;stroke-linecap:butt;stroke-linejoin:miter;stroke-opacity:1;fill-opacity:1"
       d="m 20.385318,259.08811 -1.201477,0.20826 -4.191475,5.73091 c -3.04397,0.18525 -5.9815465,0.68988 -5.9815465,0.68988 l -1.285193,2.10995 c 0.635264,2.61981 2.8995645,5.74746 2.8995645,5.74746 -1.9057885,2.6198 -3.7852985,7.48894 -3.7852985,7.48894 3.3086635,0.74102 8.3116365,0.7674 8.3116365,0.7674 1.614627,3.38723 4.711341,6.85385 4.711341,6.85385 2.6734,-2.59335 4.949568,-6.90656 4.949568,-6.90656 4.420374,0.15878 8.152991,-0.68833 8.152991,-0.68833 -1.270527,-3.09614 -3.86488,-7.48895 -3.86488,-7.48895 1.349933,-1.82593 3.009117,-5.59294 3.009119,-5.59294 l -1.51257,-2.50269 -5.78466,-0.34571 z m -0.494543,0.87023 4.394047,6.09472 6.638354,0.51987 0.401527,0.96841 c 0,0 -2.007926,4.41768 -3.212725,6.0477 0,0 2.314956,3.92143 3.448886,6.68538 0,0 -3.330916,0.75617 -7.276042,0.61443 0,0 -2.031327,3.85041 -4.417301,6.16551 0,0 -2.763878,-3.09468 -4.204912,-6.11849 0,0 -4.465213,-0.0232 -7.4181515,-0.68471 0,0 1.677197,-4.34718 3.3780885,-6.6859 0,0 -2.7165555,-4.20454 -3.2835205,-6.54327 l 0.472323,-0.25993 c 0,0 3.9924455,-0.66145 6.7091505,-0.82682 z m -3.069063,0.1416 -1.93735,0.51986 -1.25212,1.91358 -1.6769,0.14159 -1.393713,1.29915 3.543453,-0.35398 z m 6.21099,0 2.717147,3.5202 3.543452,0.35398 -1.393712,-1.29915 -1.677418,-0.14159 -1.25212,-1.91358 z m -3.143994,3.5202 -2.872693,4.84259 -5.842021,0.0946 c 0,0 2.462235,4.20484 3.620968,5.10253 -1.158733,0.89769 -3.620968,4.93717 -3.620968,4.93717 l 5.842021,0.0475 2.825667,4.86585 2.872693,-4.96042 5.889046,0.21239 c 0,0 -2.462751,-4.20484 -3.621484,-5.10253 1.158733,-0.89769 3.621484,-5.10253 3.621484,-5.10253 l -5.84202,-0.0946 z m 0.0708,3.73258 c 0,0 1.226504,2.05473 1.516187,3.63751 0,0 1.690928,-0.54304 3.815271,-0.44855 0,0 -1.063945,1.96068 -2.48822,3.04736 1.424275,1.08668 2.464449,3.04684 2.464449,3.04684 -2.124343,0.0945 -3.768246,-0.40101 -3.768246,-0.40101 -0.289683,1.58278 -1.610237,3.59048 -1.610237,3.59048 0,0 -1.179478,-2.0077 -1.469161,-3.59048 0,0 -1.761726,0.49551 -3.886068,0.40101 0,0 1.323878,-1.88937 2.748153,-2.97605 -1.424275,-1.08668 -2.677356,-3.09438 -2.677356,-3.09438 2.124343,-0.0945 3.768245,0.37775 3.768245,0.37775 0.289683,-1.58278 1.586983,-3.59048 1.586983,-3.59048 z m -13.2012605,3.87419 -0.827339,7.04504 2.055688,-4.39921 z m 26.3384425,0 -1.228347,2.64583 2.05517,4.39921 z m 0.113689,12.37805 c 0,0 -4.169389,0.1709 -7.275008,0.75603 0,0 -4.790215,5.88237 -4.921147,6.79235 -0.204372,1.42039 0.200505,3.57497 0.200505,3.57497 l 1.403015,-0.23409 c 0,0 -0.566288,-1.90371 -0.367419,-3.2737 0.101809,-0.70135 4.32015,-5.75676 4.32015,-5.75676 0,0 5.016907,-0.72689 6.286436,-0.6935 z m -26.6288645,0.16537 0.401009,1.2361 c 1.26953,-0.0334 6.3810055,0.83509 6.3810055,0.83509 0,0 3.840587,4.67765 3.942395,5.379 0.19887,1.36999 -0.367937,3.2737 -0.367937,3.2737 l 1.403533,0.23409 c 0,0 0.404876,-2.15458 0.200504,-3.57497 -0.130932,-0.90998 -4.543909,-6.41408 -4.543909,-6.41408 -3.908817,-0.86862 -7.4166005,-0.96893 -7.4166005,-0.96893 z m 25.5643295,2.40553 c -1.770658,0.0501 -3.875554,0.50139 -4.510318,0.90227 -0.634765,0.40091 -3.374471,2.88989 -3.374471,4.10931 0,1.21942 2.088244,1.68724 2.088244,1.68724 l 1.286227,-1.18597 c 0,0 -0.98547,-0.18378 -0.98547,-0.76843 0,-0.58465 1.052007,-1.80414 1.887223,-2.25516 0.835218,-0.451 2.439127,-0.38448 2.439127,-0.38448 z m -24.4284815,0.28371 1.169438,2.10478 c 0,0 1.6033925,-0.067 2.4386095,0.38395 0.835217,0.45102 1.88774,1.67052 1.88774,2.25516 0,0.58465 -0.985469,0.76843 -0.985469,0.76843 l 1.286226,1.18598 c 0,0 2.087728,-0.46782 2.087728,-1.68724 0,-1.21942 -2.739189,-3.70788 -3.373954,-4.10879 -0.634766,-0.4009 -2.7396585,-0.85216 -4.5103185,-0.90227 z"
       id="path1121"
       inkscape:connector-curvature="0" />
    <path
       style="opacity:0.23800001;fill:#ffffff;fill-opacity:1;stroke:none;stroke-width:0.26458332px;stroke-linecap:butt;stroke-linejoin:miter;stroke-opacity:1"
       d="m 19.84375,259.34933 c -8.8857,0 -14.0797606,9.48073 -14.0797606,18.92236 0,0 1.7175332,-16.91778 14.0797606,-16.91778 12.362227,0 14.07976,16.91778 14.07976,16.91778 0,-9.44163 -5.19406,-18.92236 -14.07976,-18.92236 z"
       id="path4669"
       inkscape:connector-curvature="0"
       sodipodi:nodetypes="scscs" />
    <path
       style="opacity:0.54100001;fill:#000000;stroke:none;stroke-width:0.26458332px;stroke-linecap:butt;stroke-linejoin:miter;stroke-opacity:1"
       d="m 5.7639894,278.27169 c 0.2495754,12.68227 10.9383316,16.69149 14.0797606,16.69149 3.141429,0 13.830186,-4.00922 14.07976,-16.69149 -1.821762,10.2695 -10.606269,13.43381 -14.07976,13.43381 -3.473491,0 -12.2579967,-3.16431 -14.0797606,-13.43381 z"
       id="path4617"
       inkscape:connector-curvature="0" />
    <path
       style="fill:none;stroke:#000000;stroke-width:1.05833328;stroke-linecap:butt;stroke-linejoin:miter;stroke-miterlimit:4;stroke-dasharray:none;stroke-opacity:1"
       d="m 19.84375,259.34933 c -5.953125,0 -14.0797606,5.97667 -14.0797606,18.92236 0,10.44158 7.3398596,16.69149 14.0797606,16.69149 6.739901,0 14.07976,-6.24991 14.07976,-16.69149 0,-12.94569 -8.126635,-18.92236 -14.07976,-18.92236 z"
       id="path4584"
       inkscape:connector-curvature="0" />
  </g>
</svg>
